<svg width="1512" height="706" viewBox="0 0 1512 706" fill="none" xmlns="http://www.w3.org/2000/svg">
<path d="M-86 102.5H231C255.853 102.5 276 122.647 276 147.5V296.5C276 321.353 296.147 341.5 321 341.5H635C659.853 341.5 680 321.353 680 296.5V265C680 240.147 700.147 220 725 220H859.5C884.353 220 904.5 240.147 904.5 265V505.5C904.5 530.353 924.647 550.5 949.5 550.5H951.5C976.353 550.5 996.5 530.353 996.5 505.5V126C996.5 101.147 1016.65 81 1041.5 81H1097C1121.85 81 1142 101.147 1142 126V251C1142 275.853 1162.15 296 1187 296H1314C1338.85 296 1359 316.147 1359 341V659C1359 683.853 1379.15 704 1404 704H1534" stroke="#1E1E1E" stroke-width="4"/>
<path d="M1185.7 313.281C1185.7 312.829 1185.98 312.396 1186.49 312.077C1186.99 311.757 1187.67 311.578 1188.38 311.578H1241.81C1242.52 311.578 1243.2 311.757 1243.7 312.077C1244.2 312.396 1244.48 312.829 1244.48 313.281C1244.48 313.733 1244.2 314.166 1243.7 314.485C1243.2 314.805 1242.52 314.984 1241.81 314.984H1188.38C1187.67 314.984 1186.99 314.805 1186.49 314.485C1185.98 314.166 1185.7 313.733 1185.7 313.281ZM1316.63 311.578H1263.19C1262.48 311.578 1261.8 311.757 1261.3 312.077C1260.8 312.396 1260.52 312.829 1260.52 313.281C1260.52 313.733 1260.8 314.166 1261.3 314.485C1261.8 314.805 1262.48 314.984 1263.19 314.984H1316.63C1317.33 314.984 1318.01 314.805 1318.51 314.485C1319.02 314.166 1319.3 313.733 1319.3 313.281C1319.3 312.829 1319.02 312.396 1318.51 312.077C1318.01 311.757 1317.33 311.578 1316.63 311.578ZM1215.09 328.609H1188.38C1187.67 328.609 1186.99 328.789 1186.49 329.108C1185.98 329.428 1185.7 329.861 1185.7 330.312C1185.7 330.764 1185.98 331.197 1186.49 331.517C1186.99 331.836 1187.67 332.016 1188.38 332.016H1215.09C1215.8 332.016 1216.48 331.836 1216.98 331.517C1217.48 331.197 1217.77 330.764 1217.77 330.312C1217.77 329.861 1217.48 329.428 1216.98 329.108C1216.48 328.789 1215.8 328.609 1215.09 328.609ZM1316.63 328.609H1289.91C1289.2 328.609 1288.52 328.789 1288.02 329.108C1287.52 329.428 1287.23 329.861 1287.23 330.312C1287.23 330.764 1287.52 331.197 1288.02 331.517C1288.52 331.836 1289.2 332.016 1289.91 332.016H1316.63C1317.33 332.016 1318.01 331.836 1318.51 331.517C1319.02 331.197 1319.3 330.764 1319.3 330.312C1319.3 329.861 1319.02 329.428 1318.51 329.108C1318.01 328.789 1317.33 328.609 1316.63 328.609ZM1233.8 330.312C1233.8 330.764 1234.08 331.197 1234.58 331.517C1235.08 331.836 1235.76 332.016 1236.47 332.016H1268.53C1269.24 332.016 1269.92 331.836 1270.42 331.517C1270.92 331.197 1271.2 330.764 1271.2 330.312C1271.2 329.861 1270.92 329.428 1270.42 329.108C1269.92 328.789 1269.24 328.609 1268.53 328.609H1236.47C1235.76 328.609 1235.08 328.789 1234.58 329.108C1234.08 329.428 1233.8 329.861 1233.8 330.312ZM1204.41 345.641H1188.38C1187.67 345.641 1186.99 345.82 1186.49 346.139C1185.98 346.459 1185.7 346.892 1185.7 347.344C1185.7 347.795 1185.98 348.229 1186.49 348.548C1186.99 348.867 1187.67 349.047 1188.38 349.047H1204.41C1205.12 349.047 1205.79 348.867 1206.3 348.548C1206.8 348.229 1207.08 347.795 1207.08 347.344C1207.08 346.892 1206.8 346.459 1206.3 346.139C1205.79 345.82 1205.12 345.641 1204.41 345.641ZM1241.81 345.641H1225.78C1225.07 345.641 1224.39 345.82 1223.89 346.139C1223.39 346.459 1223.11 346.892 1223.11 347.344C1223.11 347.795 1223.39 348.229 1223.89 348.548C1224.39 348.867 1225.07 349.047 1225.78 349.047H1241.81C1242.52 349.047 1243.2 348.867 1243.7 348.548C1244.2 348.229 1244.48 347.795 1244.48 347.344C1244.48 346.892 1244.2 346.459 1243.7 346.139C1243.2 345.82 1242.52 345.641 1241.81 345.641ZM1279.22 345.641H1263.19C1262.48 345.641 1261.8 345.82 1261.3 346.139C1260.8 346.459 1260.52 346.892 1260.52 347.344C1260.52 347.795 1260.8 348.229 1261.3 348.548C1261.8 348.867 1262.48 349.047 1263.19 349.047H1279.22C1279.93 349.047 1280.61 348.867 1281.11 348.548C1281.61 348.229 1281.89 347.795 1281.89 347.344C1281.89 346.892 1281.61 346.459 1281.11 346.139C1280.61 345.82 1279.93 345.641 1279.22 345.641ZM1316.63 345.641H1300.59C1299.89 345.641 1299.21 345.82 1298.7 346.139C1298.2 346.459 1297.92 346.892 1297.92 347.344C1297.92 347.795 1298.2 348.229 1298.7 348.548C1299.21 348.867 1299.89 349.047 1300.59 349.047H1316.63C1317.33 349.047 1318.01 348.867 1318.51 348.548C1319.02 348.229 1319.3 347.795 1319.3 347.344C1319.3 346.892 1319.02 346.459 1318.51 346.139C1318.01 345.82 1317.33 345.641 1316.63 345.641ZM1188.38 297.953H1316.63C1317.33 297.953 1318.01 297.774 1318.51 297.454C1319.02 297.135 1319.3 296.702 1319.3 296.25C1319.3 295.798 1319.02 295.365 1318.51 295.046C1318.01 294.726 1317.33 294.547 1316.63 294.547H1188.38C1187.67 294.547 1186.99 294.726 1186.49 295.046C1185.98 295.365 1185.7 295.798 1185.7 296.25C1185.7 296.702 1185.98 297.135 1186.49 297.454C1186.99 297.774 1187.67 297.953 1188.38 297.953Z" fill="#1E1E1E"/>
<rect x="382" y="319" width="35" height="35" rx="17.5" fill="#B685F5"/>
<rect x="1235" y="277" width="35" height="35" rx="17.5" fill="#80C2F1"/>
<path d="M1253 104.5C1236.23 104.519 1220.15 111.189 1208.3 123.047C1196.44 134.904 1189.77 150.981 1189.75 167.75C1189.75 221.872 1247.25 262.747 1249.7 264.458C1250.67 265.135 1251.82 265.498 1253 265.498C1254.18 265.498 1255.33 265.135 1256.3 264.458C1258.75 262.747 1316.25 221.872 1316.25 167.75C1316.23 150.981 1309.56 134.904 1297.7 123.047C1285.85 111.189 1269.77 104.519 1253 104.5ZM1253 144.75C1257.55 144.75 1262 146.099 1265.78 148.626C1269.56 151.153 1272.51 154.746 1274.25 158.948C1275.99 163.151 1276.45 167.776 1275.56 172.237C1274.67 176.699 1272.48 180.797 1269.26 184.013C1266.05 187.23 1261.95 189.421 1257.49 190.308C1253.03 191.196 1248.4 190.74 1244.2 188.999C1240 187.258 1236.4 184.31 1233.88 180.528C1231.35 176.746 1230 172.299 1230 167.75C1230 161.65 1232.42 155.8 1236.74 151.487C1241.05 147.173 1246.9 144.75 1253 144.75Z" fill="#80C2F1"/>
<path d="M402 140.5C385.231 140.519 369.154 147.189 357.297 159.047C345.439 170.904 338.769 186.981 338.75 203.75C338.75 257.872 396.25 298.747 398.701 300.458C399.668 301.135 400.82 301.498 402 301.498C403.18 301.498 404.332 301.135 405.299 300.458C407.75 298.747 465.25 257.872 465.25 203.75C465.231 186.981 458.561 170.904 446.703 159.047C434.846 147.189 418.769 140.519 402 140.5ZM402 180.75C406.549 180.75 410.996 182.099 414.778 184.626C418.56 187.153 421.508 190.746 423.249 194.948C424.99 199.151 425.446 203.776 424.558 208.237C423.671 212.699 421.48 216.797 418.263 220.013C415.047 223.23 410.949 225.421 406.487 226.308C402.026 227.196 397.401 226.74 393.198 224.999C388.996 223.258 385.403 220.31 382.876 216.528C380.349 212.746 379 208.299 379 203.75C379 197.65 381.423 191.8 385.737 187.487C390.05 183.173 395.9 180.75 402 180.75Z" fill="#B685F5"/>
<path d="M612.13 277.38H595.553L571.245 253.077C570.638 252.465 569.917 251.98 569.121 251.65C568.326 251.32 567.473 251.151 566.612 251.154H505.194C504.113 251.152 503.049 251.417 502.095 251.926C501.142 252.435 500.33 253.172 499.73 254.071L483.552 278.352C483.313 278.711 483.185 279.133 483.186 279.565V305.791C483.186 307.53 483.876 309.198 485.106 310.427C486.335 311.657 488.003 312.348 489.742 312.348H500.828C501.356 315.986 503.177 319.313 505.957 321.72C508.737 324.126 512.291 325.45 515.968 325.45C519.645 325.45 523.199 324.126 525.979 321.72C528.76 319.313 530.58 315.986 531.108 312.348H570.764C571.292 315.986 573.113 319.313 575.893 321.72C578.673 324.126 582.227 325.45 585.904 325.45C589.581 325.45 593.135 324.126 595.915 321.72C598.696 319.313 600.516 315.986 601.044 312.348H612.13C613.869 312.348 615.537 311.657 616.766 310.427C617.996 309.198 618.687 307.53 618.687 305.791V283.936C618.687 282.197 617.996 280.529 616.766 279.3C615.537 278.07 613.869 277.38 612.13 277.38ZM503.401 256.497C503.599 256.202 503.865 255.958 504.177 255.789C504.489 255.62 504.838 255.529 505.194 255.525H566.612C567.189 255.526 567.743 255.755 568.152 256.164L589.368 277.38H489.452L503.401 256.497ZM515.968 321.09C513.807 321.09 511.694 320.449 509.897 319.248C508.1 318.047 506.699 316.341 505.872 314.344C505.045 312.347 504.829 310.15 505.251 308.03C505.672 305.91 506.713 303.963 508.241 302.435C509.769 300.907 511.716 299.866 513.836 299.445C515.956 299.023 518.153 299.239 520.15 300.066C522.147 300.893 523.853 302.294 525.054 304.091C526.255 305.888 526.896 308.001 526.896 310.162C526.896 313.06 525.744 315.84 523.695 317.889C521.646 319.938 518.866 321.09 515.968 321.09ZM585.904 321.09C583.743 321.09 581.63 320.449 579.833 319.248C578.036 318.047 576.635 316.341 575.808 314.344C574.981 312.347 574.765 310.15 575.187 308.03C575.608 305.91 576.649 303.963 578.177 302.435C579.705 300.907 581.653 299.866 583.772 299.445C585.892 299.023 588.089 299.239 590.086 300.066C592.083 300.893 593.789 302.294 594.99 304.091C596.191 305.888 596.832 308.001 596.832 310.162C596.832 313.06 595.68 315.84 593.631 317.889C591.582 319.938 588.802 321.09 585.904 321.09ZM614.316 305.791C614.316 306.371 614.085 306.927 613.675 307.336C613.266 307.746 612.71 307.977 612.13 307.977H601.044C600.516 304.338 598.696 301.011 595.915 298.605C593.135 296.198 589.581 294.874 585.904 294.874C582.227 294.874 578.673 296.198 575.893 298.605C573.113 301.011 571.292 304.338 570.764 307.977H531.108C530.58 304.338 528.76 301.011 525.979 298.605C523.199 296.198 519.645 294.874 515.968 294.874C512.291 294.874 508.737 296.198 505.957 298.605C503.177 301.011 501.356 304.338 500.828 307.977H489.742C489.162 307.977 488.607 307.746 488.197 307.336C487.787 306.927 487.557 306.371 487.557 305.791V281.751H612.13C612.71 281.751 613.266 281.981 613.675 282.391C614.085 282.801 614.316 283.356 614.316 283.936V305.791Z" fill="black"/>
<path d="M393.72 424.285C398.299 422.201 402.027 418.613 404.284 414.117C406.54 409.621 407.19 404.487 406.124 399.571C405.058 394.654 402.341 390.251 398.425 387.093C394.509 383.934 389.63 382.212 384.599 382.212C379.568 382.212 374.689 383.934 370.773 387.093C366.857 390.251 364.14 394.654 363.074 399.571C362.009 404.487 362.658 409.621 364.915 414.117C367.171 418.613 370.899 422.201 375.479 424.285C366.751 426.547 359.185 431.991 354.268 439.549C354.152 439.722 354.071 439.916 354.03 440.12C353.99 440.325 353.99 440.535 354.031 440.74C354.073 440.944 354.155 441.138 354.272 441.311C354.389 441.483 354.539 441.631 354.714 441.744C354.888 441.858 355.084 441.936 355.289 441.974C355.494 442.012 355.705 442.008 355.908 441.964C356.112 441.92 356.305 441.835 356.476 441.715C356.646 441.596 356.792 441.444 356.903 441.267C359.903 436.654 364.008 432.863 368.844 430.239C373.681 427.615 379.097 426.241 384.599 426.241C390.102 426.241 395.518 427.615 400.354 430.239C405.191 432.863 409.296 436.654 412.295 441.267C412.407 441.444 412.552 441.596 412.723 441.715C412.894 441.835 413.087 441.92 413.29 441.964C413.494 442.008 413.705 442.012 413.91 441.974C414.115 441.936 414.31 441.858 414.485 441.744C414.659 441.631 414.81 441.483 414.927 441.311C415.044 441.138 415.126 440.944 415.167 440.74C415.209 440.535 415.209 440.325 415.168 440.12C415.128 439.916 415.047 439.722 414.931 439.549C410.013 431.991 402.448 426.547 393.72 424.285ZM365.721 404.226C365.721 400.492 366.828 396.843 368.902 393.738C370.977 390.633 373.925 388.214 377.375 386.785C380.824 385.356 384.62 384.982 388.282 385.711C391.944 386.439 395.308 388.237 397.948 390.877C400.589 393.517 402.387 396.881 403.115 400.543C403.843 404.205 403.47 408.001 402.041 411.451C400.612 414.9 398.192 417.849 395.088 419.923C391.983 421.997 388.333 423.105 384.599 423.105C379.594 423.099 374.795 421.109 371.256 417.57C367.717 414.03 365.726 409.232 365.721 404.226ZM449.101 441.727C448.751 441.955 448.326 442.034 447.918 441.947C447.51 441.861 447.153 441.616 446.926 441.267C443.928 436.649 439.82 432.854 434.979 430.231C430.138 427.608 424.716 426.24 419.21 426.251C418.792 426.251 418.392 426.085 418.097 425.79C417.802 425.495 417.636 425.095 417.636 424.678C417.636 424.261 417.802 423.861 418.097 423.565C418.392 423.27 418.792 423.105 419.21 423.105C421.99 423.103 424.736 422.487 427.252 421.301C429.767 420.115 431.989 418.388 433.759 416.244C435.529 414.099 436.803 411.59 437.491 408.896C438.179 406.202 438.263 403.389 437.738 400.658C437.212 397.927 436.09 395.347 434.451 393.1C432.812 390.854 430.697 388.997 428.257 387.663C425.818 386.329 423.113 385.55 420.338 385.382C417.562 385.215 414.784 385.662 412.201 386.693C412.009 386.77 411.804 386.809 411.597 386.807C411.39 386.806 411.186 386.763 410.995 386.682C410.805 386.601 410.632 386.484 410.487 386.336C410.342 386.188 410.227 386.014 410.15 385.822C410.073 385.63 410.034 385.425 410.035 385.218C410.037 385.011 410.08 384.806 410.161 384.616C410.242 384.425 410.359 384.253 410.507 384.108C410.655 383.963 410.829 383.848 411.021 383.771C416.393 381.476 422.457 381.409 427.878 383.585C433.299 385.761 437.634 390.001 439.929 395.373C442.224 400.745 442.29 406.809 440.115 412.23C437.939 417.651 433.698 421.986 428.326 424.281C437.057 426.548 444.623 432 449.537 439.564C449.763 439.91 449.843 440.331 449.762 440.735C449.68 441.14 449.443 441.496 449.101 441.727Z" fill="black"/>
<path d="M149.298 78.9869C149.298 79.4524 149.113 79.8989 148.784 80.2281C148.455 80.5573 148.008 80.7422 147.543 80.7422H84.3511C83.8856 80.7422 83.4391 80.5573 83.1099 80.2281C82.7807 79.8989 82.5958 79.4524 82.5958 78.9869C82.5958 78.5213 82.7807 78.0749 83.1099 77.7457C83.4391 77.4165 83.8856 77.2316 84.3511 77.2316H147.543C148.008 77.2316 148.455 77.4165 148.784 77.7457C149.113 78.0749 149.298 78.5213 149.298 78.9869ZM140.047 66.6338L62.5368 44.9337C59.2216 43.9961 56.3022 42.0038 54.2205 39.2586C52.1388 36.5134 51.0083 33.1647 51 29.7194V5.26343C51.0011 4.4298 51.2001 3.60833 51.5806 2.86662C51.9611 2.1249 52.5123 1.48412 53.1888 0.996994C53.8653 0.509865 54.6478 0.190305 55.4719 0.0646001C56.296 -0.0611044 57.1382 0.0106398 57.9291 0.273929L60.3339 1.0726C60.5851 1.15704 60.8138 1.29723 61.003 1.48267C61.1923 1.66811 61.3371 1.89398 61.4266 2.14334L66.3898 15.8743L82.5958 20.4952V5.26343C82.5962 4.42942 82.7947 3.60744 83.1749 2.86516C83.5551 2.12288 84.1062 1.48152 84.7828 0.99389C85.4594 0.506262 86.2421 0.186312 87.0666 0.0603799C87.891 -0.0655526 88.7336 0.00613418 89.5249 0.26954L91.9297 1.06821C92.1668 1.14764 92.3842 1.27683 92.5674 1.44711C92.7505 1.61739 92.8952 1.82485 92.9917 2.05558L103.194 26.3755L130.709 34.0638C134.033 34.9952 136.962 36.9866 139.05 39.7353C141.138 42.484 142.271 45.8394 142.277 49.2913V64.9443C142.277 65.2152 142.214 65.4824 142.093 65.725C141.973 65.9676 141.797 66.179 141.582 66.3426C141.366 66.5063 141.115 66.6177 140.849 66.6682C140.582 66.7187 140.308 66.707 140.047 66.6338ZM138.766 49.2913C138.763 46.6051 137.882 43.9936 136.257 41.8545C134.632 39.7155 132.353 38.1663 129.766 37.4428L101.43 29.5439C101.175 29.4723 100.94 29.3439 100.741 29.1684C100.543 28.9928 100.387 28.7746 100.285 28.5302L90.0559 4.15319L88.4103 3.60465C88.1473 3.51814 87.8676 3.49505 87.594 3.53726C87.3204 3.57948 87.0607 3.6858 86.8361 3.84755C86.6114 4.0093 86.4282 4.22189 86.3014 4.46796C86.1746 4.71403 86.1078 4.98661 86.1064 5.26343V22.8166C86.1067 23.0885 86.0438 23.3568 85.9227 23.6002C85.8017 23.8436 85.6257 24.0556 85.4087 24.2194C85.1917 24.3833 84.9396 24.4944 84.6723 24.5442C84.405 24.5939 84.1298 24.5809 83.8684 24.5061L64.5599 19.0032C64.2927 18.9265 64.0475 18.7874 63.8446 18.5975C63.6416 18.4075 63.4867 18.1721 63.3926 17.9105L58.4162 4.13563L56.8189 3.60465C56.5555 3.51517 56.2745 3.4904 55.9995 3.5324C55.7246 3.57441 55.4637 3.68197 55.2391 3.84601C55.0145 4.00804 54.8313 4.22093 54.7047 4.46728C54.5781 4.71363 54.5116 4.98645 54.5106 5.26343V29.715C54.5143 32.3973 55.3925 35.0051 57.0119 37.1433C58.6314 39.2814 60.9038 40.8332 63.4847 41.5635L138.766 62.6273V49.2913Z" fill="black"/>
<path d="M109.797 283.781V323.906C109.797 324.35 109.621 324.775 109.307 325.088C108.994 325.402 108.568 325.578 108.125 325.578C107.682 325.578 107.256 325.402 106.943 325.088C106.629 324.775 106.453 324.35 106.453 323.906V283.781C106.453 283.338 106.629 282.913 106.943 282.599C107.256 282.286 107.682 282.109 108.125 282.109C108.568 282.109 108.994 282.286 109.307 282.599C109.621 282.913 109.797 283.338 109.797 283.781ZM121.5 282.109C121.057 282.109 120.631 282.286 120.318 282.599C120.004 282.913 119.828 283.338 119.828 283.781V323.906C119.828 324.35 120.004 324.775 120.318 325.088C120.631 325.402 121.057 325.578 121.5 325.578C121.943 325.578 122.369 325.402 122.682 325.088C122.996 324.775 123.172 324.35 123.172 323.906V283.781C123.172 283.338 122.996 282.913 122.682 282.599C122.369 282.286 121.943 282.109 121.5 282.109ZM134.875 282.109C134.432 282.109 134.006 282.286 133.693 282.599C133.379 282.913 133.203 283.338 133.203 283.781V323.906C133.203 324.35 133.379 324.775 133.693 325.088C134.006 325.402 134.432 325.578 134.875 325.578C135.318 325.578 135.744 325.402 136.057 325.088C136.371 324.775 136.547 324.35 136.547 323.906V283.781C136.547 283.338 136.371 282.913 136.057 282.599C135.744 282.286 135.318 282.109 134.875 282.109ZM153.266 273.75V333.938C153.266 335.268 152.737 336.543 151.797 337.484C150.856 338.425 149.58 338.953 148.25 338.953H139.891V347.312C139.891 347.756 139.714 348.181 139.401 348.495C139.087 348.808 138.662 348.984 138.219 348.984C137.775 348.984 137.35 348.808 137.037 348.495C136.723 348.181 136.547 347.756 136.547 347.312V338.953H106.453V347.312C106.453 347.756 106.277 348.181 105.963 348.495C105.65 348.808 105.225 348.984 104.781 348.984C104.338 348.984 103.913 348.808 103.599 348.495C103.286 348.181 103.109 347.756 103.109 347.312V338.953H94.75C93.4198 338.953 92.144 338.425 91.2034 337.484C90.2628 336.543 89.7344 335.268 89.7344 333.938V273.75C89.7344 272.42 90.2628 271.144 91.2034 270.203C92.144 269.263 93.4198 268.734 94.75 268.734H106.453V257.031C106.453 254.814 107.334 252.688 108.902 251.12C110.469 249.553 112.595 248.672 114.812 248.672H128.188C129.285 248.672 130.372 248.888 131.386 249.308C132.401 249.728 133.322 250.344 134.098 251.12C134.875 251.897 135.49 252.818 135.911 253.832C136.331 254.846 136.547 255.933 136.547 257.031V268.734H148.25C149.58 268.734 150.856 269.263 151.797 270.203C152.737 271.144 153.266 272.42 153.266 273.75ZM109.797 268.734H133.203V257.031C133.203 255.701 132.675 254.425 131.734 253.485C130.793 252.544 129.518 252.016 128.188 252.016H114.812C113.482 252.016 112.207 252.544 111.266 253.485C110.325 254.425 109.797 255.701 109.797 257.031V268.734ZM149.922 273.75C149.922 273.307 149.746 272.881 149.432 272.568C149.119 272.254 148.693 272.078 148.25 272.078H94.75C94.3066 272.078 93.8813 272.254 93.5678 272.568C93.2543 272.881 93.0781 273.307 93.0781 273.75V333.938C93.0781 334.381 93.2543 334.806 93.5678 335.12C93.8813 335.433 94.3066 335.609 94.75 335.609H148.25C148.693 335.609 149.119 335.433 149.432 335.12C149.746 334.806 149.922 334.381 149.922 333.938V273.75Z" fill="black"/>
<path d="M240.38 292.48H223.44V290.94C223.44 286.447 221.655 282.138 218.478 278.962C215.302 275.785 210.993 274 206.5 274C202.007 274 197.698 275.785 194.522 278.962C191.345 282.138 189.56 286.447 189.56 290.94V292.48H172.62C171.395 292.48 170.22 292.967 169.353 293.833C168.487 294.7 168 295.875 168 297.1V343.3C168 344.525 168.487 345.7 169.353 346.567C170.22 347.433 171.395 347.92 172.62 347.92H240.38C241.605 347.92 242.78 347.433 243.647 346.567C244.513 345.7 245 344.525 245 343.3V297.1C245 295.875 244.513 294.7 243.647 293.833C242.78 292.967 241.605 292.48 240.38 292.48ZM192.64 290.94C192.64 287.264 194.1 283.739 196.7 281.14C199.299 278.54 202.824 277.08 206.5 277.08C210.176 277.08 213.701 278.54 216.3 281.14C218.9 283.739 220.36 287.264 220.36 290.94V292.48H192.64V290.94ZM241.92 343.3C241.92 343.708 241.758 344.1 241.469 344.389C241.18 344.678 240.788 344.84 240.38 344.84H172.62C172.212 344.84 171.82 344.678 171.531 344.389C171.242 344.1 171.08 343.708 171.08 343.3V297.1C171.08 296.692 171.242 296.3 171.531 296.011C171.82 295.722 172.212 295.56 172.62 295.56H240.38C240.788 295.56 241.18 295.722 241.469 296.011C241.758 296.3 241.92 296.692 241.92 297.1V343.3Z" fill="black"/>
<path d="M1505.44 683.203H1495.98V642.715L1500.32 647.05C1500.67 647.404 1501.15 647.604 1501.66 647.604C1502.16 647.604 1502.64 647.404 1502.99 647.05C1503.35 646.695 1503.55 646.214 1503.55 645.712C1503.55 645.21 1503.35 644.729 1502.99 644.374L1456.51 597.893C1455.99 597.365 1455.36 596.945 1454.67 596.659C1453.98 596.372 1453.24 596.225 1452.5 596.225C1451.75 596.225 1451.01 596.372 1450.32 596.659C1449.63 596.945 1449 597.365 1448.48 597.893L1402.01 644.374C1401.83 644.55 1401.69 644.759 1401.6 644.988C1401.5 645.218 1401.45 645.464 1401.45 645.712C1401.45 645.96 1401.5 646.206 1401.6 646.436C1401.69 646.665 1401.83 646.874 1402.01 647.05C1402.18 647.225 1402.39 647.365 1402.62 647.46C1402.85 647.555 1403.1 647.604 1403.34 647.604C1403.59 647.604 1403.84 647.555 1404.07 647.46C1404.3 647.365 1404.51 647.225 1404.68 647.05L1409.02 642.715V683.203H1399.56C1399.06 683.203 1398.58 683.402 1398.23 683.757C1397.87 684.111 1397.67 684.592 1397.67 685.094C1397.67 685.595 1397.87 686.076 1398.23 686.431C1398.58 686.785 1399.06 686.984 1399.56 686.984H1505.44C1505.94 686.984 1506.42 686.785 1506.77 686.431C1507.13 686.076 1507.33 685.595 1507.33 685.094C1507.33 684.592 1507.13 684.111 1506.77 683.757C1506.42 683.402 1505.94 683.203 1505.44 683.203ZM1412.8 638.934L1451.16 600.569C1451.34 600.393 1451.55 600.253 1451.78 600.158C1452.01 600.063 1452.25 600.014 1452.5 600.014C1452.75 600.014 1452.99 600.063 1453.22 600.158C1453.45 600.253 1453.66 600.393 1453.84 600.569L1492.2 638.934V683.203H1465.73V654.844C1465.73 654.342 1465.54 653.861 1465.18 653.507C1464.83 653.152 1464.35 652.953 1463.84 652.953H1441.16C1440.65 652.953 1440.17 653.152 1439.82 653.507C1439.46 653.861 1439.27 654.342 1439.27 654.844V683.203H1412.8V638.934ZM1461.95 683.203H1443.05V656.734H1461.95V683.203Z" fill="black"/>
<path d="M1336.44 534.703H1329.27V451.031C1329.27 450.397 1329.01 449.789 1328.57 449.341C1328.12 448.892 1327.51 448.641 1326.88 448.641H1300.58V431.906C1300.58 431.272 1300.33 430.664 1299.88 430.216C1299.43 429.767 1298.82 429.516 1298.19 429.516H1240.81C1240.18 429.516 1239.57 429.767 1239.12 430.216C1238.67 430.664 1238.42 431.272 1238.42 431.906V467.766H1212.12C1211.49 467.766 1210.88 468.017 1210.43 468.466C1209.99 468.914 1209.73 469.522 1209.73 470.156V534.703H1202.56C1201.93 534.703 1201.32 534.955 1200.87 535.403C1200.42 535.852 1200.17 536.46 1200.17 537.094C1200.17 537.728 1200.42 538.336 1200.87 538.784C1201.32 539.233 1201.93 539.484 1202.56 539.484H1336.44C1337.07 539.484 1337.68 539.233 1338.13 538.784C1338.58 538.336 1338.83 537.728 1338.83 537.094C1338.83 536.46 1338.58 535.852 1338.13 535.403C1337.68 534.955 1337.07 534.703 1336.44 534.703ZM1214.52 472.547H1240.81C1241.45 472.547 1242.05 472.295 1242.5 471.847C1242.95 471.398 1243.2 470.79 1243.2 470.156V434.297H1295.8V451.031C1295.8 451.665 1296.05 452.273 1296.5 452.722C1296.95 453.17 1297.55 453.422 1298.19 453.422H1324.48V534.703H1281.45V508.406C1281.45 507.772 1281.2 507.164 1280.75 506.716C1280.3 506.267 1279.7 506.016 1279.06 506.016H1259.94C1259.3 506.016 1258.7 506.267 1258.25 506.716C1257.8 507.164 1257.55 507.772 1257.55 508.406V534.703H1214.52V472.547ZM1276.67 534.703H1262.33V510.797H1276.67V534.703ZM1262.33 451.031C1262.33 450.397 1262.58 449.789 1263.03 449.341C1263.48 448.892 1264.08 448.641 1264.72 448.641H1274.28C1274.92 448.641 1275.52 448.892 1275.97 449.341C1276.42 449.789 1276.67 450.397 1276.67 451.031C1276.67 451.665 1276.42 452.273 1275.97 452.722C1275.52 453.17 1274.92 453.422 1274.28 453.422H1264.72C1264.08 453.422 1263.48 453.17 1263.03 452.722C1262.58 452.273 1262.33 451.665 1262.33 451.031ZM1262.33 470.156C1262.33 469.522 1262.58 468.914 1263.03 468.466C1263.48 468.017 1264.08 467.766 1264.72 467.766H1274.28C1274.92 467.766 1275.52 468.017 1275.97 468.466C1276.42 468.914 1276.67 469.522 1276.67 470.156C1276.67 470.79 1276.42 471.398 1275.97 471.847C1275.52 472.295 1274.92 472.547 1274.28 472.547H1264.72C1264.08 472.547 1263.48 472.295 1263.03 471.847C1262.58 471.398 1262.33 470.79 1262.33 470.156ZM1295.8 470.156C1295.8 469.522 1296.05 468.914 1296.5 468.466C1296.95 468.017 1297.55 467.766 1298.19 467.766H1307.75C1308.38 467.766 1308.99 468.017 1309.44 468.466C1309.89 468.914 1310.14 469.522 1310.14 470.156C1310.14 470.79 1309.89 471.398 1309.44 471.847C1308.99 472.295 1308.38 472.547 1307.75 472.547H1298.19C1297.55 472.547 1296.95 472.295 1296.5 471.847C1296.05 471.398 1295.8 470.79 1295.8 470.156ZM1243.2 489.281C1243.2 489.915 1242.95 490.523 1242.5 490.972C1242.05 491.42 1241.45 491.672 1240.81 491.672H1231.25C1230.62 491.672 1230.01 491.42 1229.56 490.972C1229.11 490.523 1228.86 489.915 1228.86 489.281C1228.86 488.647 1229.11 488.039 1229.56 487.591C1230.01 487.142 1230.62 486.891 1231.25 486.891H1240.81C1241.45 486.891 1242.05 487.142 1242.5 487.591C1242.95 488.039 1243.2 488.647 1243.2 489.281ZM1243.2 508.406C1243.2 509.04 1242.95 509.648 1242.5 510.097C1242.05 510.545 1241.45 510.797 1240.81 510.797H1231.25C1230.62 510.797 1230.01 510.545 1229.56 510.097C1229.11 509.648 1228.86 509.04 1228.86 508.406C1228.86 507.772 1229.11 507.164 1229.56 506.716C1230.01 506.267 1230.62 506.016 1231.25 506.016H1240.81C1241.45 506.016 1242.05 506.267 1242.5 506.716C1242.95 507.164 1243.2 507.772 1243.2 508.406ZM1262.33 489.281C1262.33 488.647 1262.58 488.039 1263.03 487.591C1263.48 487.142 1264.08 486.891 1264.72 486.891H1274.28C1274.92 486.891 1275.52 487.142 1275.97 487.591C1276.42 488.039 1276.67 488.647 1276.67 489.281C1276.67 489.915 1276.42 490.523 1275.97 490.972C1275.52 491.42 1274.92 491.672 1274.28 491.672H1264.72C1264.08 491.672 1263.48 491.42 1263.03 490.972C1262.58 490.523 1262.33 489.915 1262.33 489.281ZM1295.8 489.281C1295.8 488.647 1296.05 488.039 1296.5 487.591C1296.95 487.142 1297.55 486.891 1298.19 486.891H1307.75C1308.38 486.891 1308.99 487.142 1309.44 487.591C1309.89 488.039 1310.14 488.647 1310.14 489.281C1310.14 489.915 1309.89 490.523 1309.44 490.972C1308.99 491.42 1308.38 491.672 1307.75 491.672H1298.19C1297.55 491.672 1296.95 491.42 1296.5 490.972C1296.05 490.523 1295.8 489.915 1295.8 489.281ZM1295.8 508.406C1295.8 507.772 1296.05 507.164 1296.5 506.716C1296.95 506.267 1297.55 506.016 1298.19 506.016H1307.75C1308.38 506.016 1308.99 506.267 1309.44 506.716C1309.89 507.164 1310.14 507.772 1310.14 508.406C1310.14 509.04 1309.89 509.648 1309.44 510.097C1308.99 510.545 1308.38 510.797 1307.75 510.797H1298.19C1297.55 510.797 1296.95 510.545 1296.5 510.097C1296.05 509.648 1295.8 509.04 1295.8 508.406Z" fill="black"/>
<path d="M834.978 138.782L825.979 129.778C825.629 129.428 825.155 129.232 824.66 129.232C824.165 129.232 823.691 129.428 823.341 129.778C822.991 130.128 822.795 130.602 822.795 131.097C822.795 131.592 822.991 132.066 823.341 132.416L832.345 141.415C832.864 141.934 833.275 142.551 833.556 143.23C833.837 143.909 833.981 144.636 833.98 145.371V183.291C833.98 184.774 833.391 186.196 832.342 187.245C831.294 188.294 829.871 188.883 828.388 188.883C826.905 188.883 825.483 188.294 824.434 187.245C823.385 186.196 822.796 184.774 822.796 183.291V164.65C822.796 162.178 821.814 159.808 820.066 158.06C818.318 156.312 815.947 155.33 813.475 155.33H804.155V131.097C804.155 128.625 803.173 126.254 801.425 124.506C799.677 122.759 797.307 121.777 794.835 121.777H757.553C755.081 121.777 752.711 122.759 750.963 124.506C749.215 126.254 748.233 128.625 748.233 131.097V203.796H738.913C738.418 203.796 737.944 203.992 737.595 204.342C737.245 204.691 737.049 205.165 737.049 205.66C737.049 206.154 737.245 206.628 737.595 206.978C737.944 207.327 738.418 207.524 738.913 207.524H813.475C813.97 207.524 814.444 207.327 814.794 206.978C815.143 206.628 815.34 206.154 815.34 205.66C815.34 205.165 815.143 204.691 814.794 204.342C814.444 203.992 813.97 203.796 813.475 203.796H804.155V159.058H813.475C814.959 159.058 816.381 159.647 817.43 160.696C818.479 161.745 819.068 163.167 819.068 164.65V183.291C819.068 185.763 820.05 188.134 821.798 189.881C823.545 191.629 825.916 192.611 828.388 192.611C830.86 192.611 833.231 191.629 834.979 189.881C836.726 188.134 837.708 185.763 837.708 183.291V145.371C837.712 144.147 837.472 142.934 837.004 141.803C836.535 140.671 835.846 139.645 834.978 138.782ZM751.961 203.796V131.097C751.961 129.614 752.55 128.191 753.599 127.143C754.648 126.094 756.07 125.505 757.553 125.505H794.835C796.318 125.505 797.74 126.094 798.789 127.143C799.838 128.191 800.427 129.614 800.427 131.097V203.796H751.961ZM789.243 157.194C789.243 157.688 789.046 158.162 788.697 158.512C788.347 158.862 787.873 159.058 787.378 159.058H765.01C764.515 159.058 764.041 158.862 763.692 158.512C763.342 158.162 763.146 157.688 763.146 157.194C763.146 156.7 763.342 156.225 763.692 155.876C764.041 155.526 764.515 155.33 765.01 155.33H787.378C787.873 155.33 788.347 155.526 788.697 155.876C789.046 156.225 789.243 156.7 789.243 157.194Z" fill="black"/>
<path d="M77.3414 178V156.182H85.5233C87.1994 156.182 88.6056 156.473 89.742 157.055C90.8855 157.638 91.7484 158.455 92.3308 159.506C92.9203 160.55 93.215 161.768 93.215 163.16C93.215 164.559 92.9167 165.773 92.3201 166.803C91.7306 167.826 90.8606 168.618 89.7101 169.179C88.5595 169.733 87.1461 170.01 85.47 170.01H79.6426V166.729H84.9373C85.9174 166.729 86.72 166.594 87.345 166.324C87.97 166.047 88.4316 165.646 88.7299 165.12C89.0353 164.587 89.188 163.934 89.188 163.16C89.188 162.386 89.0353 161.725 88.7299 161.178C88.4245 160.624 87.9593 160.205 87.3343 159.921C86.7093 159.63 85.9032 159.484 84.916 159.484H81.2939V178H77.3414ZM88.6127 168.114L94.014 178H89.6035L84.2981 168.114H88.6127ZM103.693 178.32C102.052 178.32 100.635 177.979 99.4419 177.297C98.2559 176.608 97.3432 175.635 96.704 174.378C96.0648 173.114 95.7452 171.626 95.7452 169.914C95.7452 168.231 96.0648 166.754 96.704 165.482C97.3503 164.204 98.2523 163.21 99.41 162.499C100.568 161.782 101.928 161.423 103.49 161.423C104.499 161.423 105.45 161.587 106.345 161.913C107.247 162.233 108.043 162.73 108.732 163.405C109.428 164.08 109.975 164.939 110.372 165.983C110.77 167.02 110.969 168.256 110.969 169.69V170.873H97.5563V168.273H107.272C107.265 167.535 107.105 166.878 106.793 166.303C106.48 165.72 106.044 165.262 105.482 164.928C104.928 164.594 104.282 164.428 103.544 164.428C102.755 164.428 102.063 164.619 101.466 165.003C100.869 165.379 100.404 165.876 100.07 166.494C99.7438 167.105 99.5769 167.776 99.5698 168.508V170.777C99.5698 171.729 99.7438 172.545 100.092 173.227C100.44 173.902 100.926 174.42 101.551 174.783C102.176 175.138 102.908 175.315 103.746 175.315C104.307 175.315 104.815 175.237 105.269 175.081C105.724 174.918 106.118 174.68 106.452 174.367C106.786 174.055 107.038 173.668 107.208 173.206L110.809 173.611C110.582 174.562 110.149 175.393 109.509 176.104C108.877 176.807 108.068 177.354 107.08 177.744C106.093 178.128 104.964 178.32 103.693 178.32ZM125.151 184.136V175.422H124.991C124.793 175.82 124.505 176.242 124.129 176.69C123.752 177.13 123.255 177.506 122.637 177.819C122.019 178.131 121.241 178.288 120.304 178.288C119.018 178.288 117.868 177.957 116.852 177.297C115.837 176.636 115.034 175.678 114.445 174.42C113.855 173.163 113.56 171.636 113.56 169.839C113.56 168.021 113.859 166.487 114.455 165.237C115.059 163.98 115.872 163.032 116.895 162.393C117.918 161.746 119.058 161.423 120.315 161.423C121.273 161.423 122.062 161.587 122.68 161.913C123.298 162.233 123.788 162.62 124.15 163.075C124.512 163.522 124.793 163.945 124.991 164.342H125.226V161.636H129.018V184.136H125.151ZM121.38 175.124C122.197 175.124 122.893 174.903 123.468 174.463C124.043 174.016 124.48 173.394 124.778 172.599C125.077 171.803 125.226 170.876 125.226 169.818C125.226 168.76 125.077 167.84 124.778 167.059C124.487 166.278 124.054 165.67 123.479 165.237C122.911 164.804 122.211 164.587 121.38 164.587C120.521 164.587 119.803 164.811 119.228 165.259C118.653 165.706 118.219 166.324 117.928 167.112C117.637 167.901 117.491 168.803 117.491 169.818C117.491 170.841 117.637 171.754 117.928 172.556C118.227 173.352 118.663 173.98 119.239 174.442C119.821 174.896 120.535 175.124 121.38 175.124ZM143.411 171.118V161.636H147.268V178H143.528V175.092H143.358C142.989 176.008 142.381 176.757 141.536 177.339C140.698 177.922 139.665 178.213 138.436 178.213C137.364 178.213 136.415 177.975 135.592 177.499C134.775 177.016 134.136 176.317 133.674 175.401C133.212 174.477 132.982 173.362 132.982 172.055V161.636H136.838V171.459C136.838 172.496 137.122 173.32 137.69 173.93C138.259 174.541 139.004 174.847 139.928 174.847C140.496 174.847 141.046 174.708 141.579 174.431C142.112 174.154 142.548 173.742 142.889 173.195C143.237 172.641 143.411 171.949 143.411 171.118ZM158.478 178.32C156.837 178.32 155.42 177.979 154.227 177.297C153.041 176.608 152.128 175.635 151.489 174.378C150.85 173.114 150.53 171.626 150.53 169.914C150.53 168.231 150.85 166.754 151.489 165.482C152.135 164.204 153.037 163.21 154.195 162.499C155.353 161.782 156.713 161.423 158.275 161.423C159.284 161.423 160.236 161.587 161.131 161.913C162.032 162.233 162.828 162.73 163.517 163.405C164.213 164.08 164.76 164.939 165.157 165.983C165.555 167.02 165.754 168.256 165.754 169.69V170.873H152.341V168.273H162.057C162.05 167.535 161.89 166.878 161.578 166.303C161.265 165.72 160.829 165.262 160.268 164.928C159.714 164.594 159.067 164.428 158.329 164.428C157.54 164.428 156.848 164.619 156.251 165.003C155.655 165.379 155.189 165.876 154.856 166.494C154.529 167.105 154.362 167.776 154.355 168.508V170.777C154.355 171.729 154.529 172.545 154.877 173.227C155.225 173.902 155.711 174.42 156.336 174.783C156.961 175.138 157.693 175.315 158.531 175.315C159.092 175.315 159.6 175.237 160.055 175.081C160.509 174.918 160.903 174.68 161.237 174.367C161.571 174.055 161.823 173.668 161.993 173.206L165.594 173.611C165.367 174.562 164.934 175.393 164.295 176.104C163.662 176.807 162.853 177.354 161.866 177.744C160.878 178.128 159.749 178.32 158.478 178.32ZM181.95 165.962L178.434 166.345C178.335 165.99 178.161 165.656 177.912 165.344C177.671 165.031 177.344 164.779 176.932 164.587C176.52 164.396 176.016 164.3 175.419 164.3C174.617 164.3 173.942 164.474 173.395 164.822C172.855 165.17 172.589 165.621 172.596 166.175C172.589 166.651 172.763 167.038 173.118 167.336C173.48 167.634 174.077 167.879 174.908 168.071L177.699 168.668C179.248 169.001 180.398 169.531 181.151 170.255C181.911 170.979 182.294 171.928 182.301 173.099C182.294 174.129 181.993 175.038 181.396 175.827C180.806 176.608 179.986 177.219 178.935 177.659C177.884 178.099 176.676 178.32 175.313 178.32C173.31 178.32 171.698 177.901 170.476 177.062C169.255 176.217 168.527 175.042 168.292 173.536L172.053 173.174C172.223 173.913 172.586 174.47 173.14 174.847C173.694 175.223 174.414 175.411 175.302 175.411C176.218 175.411 176.953 175.223 177.507 174.847C178.069 174.47 178.349 174.005 178.349 173.451C178.349 172.982 178.168 172.595 177.806 172.29C177.451 171.984 176.897 171.75 176.144 171.587L173.353 171.001C171.783 170.674 170.622 170.124 169.869 169.349C169.116 168.568 168.743 167.581 168.75 166.388C168.743 165.379 169.017 164.506 169.571 163.767C170.132 163.021 170.909 162.446 171.904 162.041C172.905 161.629 174.059 161.423 175.366 161.423C177.284 161.423 178.793 161.832 179.894 162.648C181.002 163.465 181.687 164.57 181.95 165.962ZM193.653 161.636V164.619H184.246V161.636H193.653ZM186.568 157.716H190.425V173.078C190.425 173.597 190.503 173.994 190.659 174.271C190.822 174.541 191.036 174.726 191.298 174.825C191.561 174.925 191.852 174.974 192.172 174.974C192.413 174.974 192.634 174.957 192.832 174.921C193.038 174.886 193.195 174.854 193.301 174.825L193.951 177.84C193.745 177.911 193.45 177.989 193.067 178.075C192.69 178.16 192.229 178.21 191.682 178.224C190.716 178.252 189.846 178.107 189.072 177.787C188.298 177.46 187.683 176.956 187.229 176.274C186.781 175.592 186.561 174.74 186.568 173.717V157.716ZM212.491 161.636V164.619H203.084V161.636H212.491ZM205.406 157.716H209.263V173.078C209.263 173.597 209.341 173.994 209.497 174.271C209.66 174.541 209.873 174.726 210.136 174.825C210.399 174.925 210.69 174.974 211.01 174.974C211.251 174.974 211.471 174.957 211.67 174.921C211.876 174.886 212.032 174.854 212.139 174.825L212.789 177.84C212.583 177.911 212.288 177.989 211.905 178.075C211.528 178.16 211.067 178.21 210.52 178.224C209.554 178.252 208.684 178.107 207.91 177.787C207.135 177.46 206.521 176.956 206.067 176.274C205.619 175.592 205.399 174.74 205.406 173.717V157.716ZM222.678 178.32C221.08 178.32 219.695 177.968 218.523 177.265C217.351 176.562 216.442 175.578 215.796 174.314C215.157 173.05 214.837 171.572 214.837 169.882C214.837 168.192 215.157 166.711 215.796 165.44C216.442 164.168 217.351 163.181 218.523 162.478C219.695 161.775 221.08 161.423 222.678 161.423C224.276 161.423 225.661 161.775 226.833 162.478C228.005 163.181 228.91 164.168 229.549 165.44C230.196 166.711 230.519 168.192 230.519 169.882C230.519 171.572 230.196 173.05 229.549 174.314C228.91 175.578 228.005 176.562 226.833 177.265C225.661 177.968 224.276 178.32 222.678 178.32ZM222.699 175.23C223.566 175.23 224.29 174.992 224.873 174.516C225.455 174.033 225.888 173.387 226.172 172.577C226.463 171.768 226.609 170.866 226.609 169.871C226.609 168.87 226.463 167.964 226.172 167.155C225.888 166.338 225.455 165.688 224.873 165.205C224.29 164.722 223.566 164.481 222.699 164.481C221.811 164.481 221.073 164.722 220.483 165.205C219.901 165.688 219.464 166.338 219.173 167.155C218.889 167.964 218.747 168.87 218.747 169.871C218.747 170.866 218.889 171.768 219.173 172.577C219.464 173.387 219.901 174.033 220.483 174.516C221.073 174.992 221.811 175.23 222.699 175.23ZM83.615 201.962L80.0993 202.345C79.9999 201.99 79.8259 201.656 79.5773 201.344C79.3358 201.031 79.0091 200.779 78.5972 200.587C78.1853 200.396 77.681 200.3 77.0844 200.3C76.2819 200.3 75.6072 200.474 75.0603 200.822C74.5205 201.17 74.2542 201.621 74.2613 202.175C74.2542 202.651 74.4282 203.038 74.7833 203.336C75.1455 203.634 75.7421 203.879 76.5731 204.071L79.3643 204.668C80.9126 205.001 82.0631 205.531 82.816 206.255C83.5759 206.979 83.9594 207.928 83.9665 209.099C83.9594 210.129 83.6576 211.038 83.061 211.827C82.4715 212.608 81.6512 213.219 80.6001 213.659C79.5489 214.099 78.3415 214.32 76.9779 214.32C74.9751 214.32 73.3628 213.901 72.1412 213.062C70.9197 212.217 70.1917 211.042 69.9573 209.536L73.718 209.174C73.8884 209.913 74.2506 210.47 74.8046 210.847C75.3586 211.223 76.0795 211.411 76.9672 211.411C77.8834 211.411 78.6185 211.223 79.1725 210.847C79.7336 210.47 80.0141 210.005 80.0141 209.451C80.0141 208.982 79.833 208.595 79.4708 208.29C79.1157 207.984 78.5617 207.75 77.8089 207.587L75.0177 207.001C73.4481 206.674 72.2868 206.124 71.534 205.349C70.7812 204.568 70.4083 203.581 70.4154 202.388C70.4083 201.379 70.6817 200.506 71.2357 199.767C71.7968 199.021 72.5745 198.446 73.5688 198.041C74.5702 197.629 75.7243 197.423 77.0312 197.423C78.9488 197.423 80.458 197.832 81.5589 198.648C82.6668 199.465 83.3522 200.57 83.615 201.962ZM91.0031 204.412V214H87.1466V192.182H90.9179V200.417H91.1096C91.4932 199.494 92.0862 198.766 92.8888 198.233C93.6984 197.693 94.7282 197.423 95.9782 197.423C97.1146 197.423 98.1054 197.661 98.9506 198.137C99.7957 198.613 100.449 199.309 100.911 200.225C101.38 201.141 101.614 202.26 101.614 203.581V214H97.7574V204.178C97.7574 203.077 97.4733 202.221 96.9051 201.61C96.344 200.992 95.5557 200.683 94.54 200.683C93.8582 200.683 93.2474 200.832 92.7077 201.131C92.175 201.422 91.7559 201.844 91.4506 202.398C91.1523 202.952 91.0031 203.624 91.0031 204.412ZM110.254 214.33C109.217 214.33 108.283 214.146 107.452 213.776C106.628 213.4 105.975 212.846 105.492 212.114C105.016 211.383 104.778 210.481 104.778 209.408C104.778 208.485 104.948 207.722 105.289 207.118C105.63 206.514 106.095 206.031 106.685 205.669C107.274 205.307 107.938 205.033 108.677 204.849C109.423 204.657 110.193 204.518 110.989 204.433C111.948 204.334 112.725 204.245 113.322 204.167C113.919 204.082 114.352 203.954 114.622 203.783C114.899 203.606 115.037 203.332 115.037 202.963V202.899C115.037 202.097 114.799 201.475 114.323 201.035C113.848 200.594 113.162 200.374 112.267 200.374C111.323 200.374 110.573 200.58 110.019 200.992C109.473 201.404 109.103 201.891 108.911 202.452L105.311 201.94C105.595 200.946 106.063 200.115 106.717 199.447C107.37 198.773 108.169 198.268 109.114 197.935C110.059 197.594 111.103 197.423 112.246 197.423C113.034 197.423 113.819 197.516 114.6 197.7C115.382 197.885 116.095 198.19 116.742 198.616C117.388 199.036 117.907 199.607 118.297 200.332C118.695 201.056 118.894 201.962 118.894 203.048V214H115.186V211.752H115.059C114.824 212.207 114.494 212.633 114.068 213.031C113.649 213.421 113.12 213.737 112.48 213.979C111.848 214.213 111.106 214.33 110.254 214.33ZM111.255 211.496C112.029 211.496 112.701 211.344 113.269 211.038C113.837 210.726 114.274 210.314 114.579 209.803C114.892 209.291 115.048 208.734 115.048 208.13V206.202C114.927 206.301 114.721 206.393 114.43 206.479C114.146 206.564 113.826 206.638 113.471 206.702C113.116 206.766 112.764 206.823 112.416 206.873C112.068 206.923 111.767 206.965 111.511 207.001C110.936 207.079 110.421 207.207 109.966 207.384C109.512 207.562 109.153 207.81 108.89 208.13C108.627 208.442 108.496 208.847 108.496 209.344C108.496 210.055 108.755 210.591 109.274 210.953C109.792 211.315 110.453 211.496 111.255 211.496ZM122.772 214V197.636H126.511V200.364H126.681C126.98 199.419 127.491 198.691 128.215 198.18C128.947 197.661 129.782 197.402 130.719 197.402C130.932 197.402 131.17 197.413 131.433 197.434C131.703 197.448 131.926 197.473 132.104 197.509V201.056C131.941 200.999 131.681 200.95 131.326 200.907C130.978 200.857 130.641 200.832 130.314 200.832C129.611 200.832 128.979 200.985 128.418 201.29C127.864 201.589 127.427 202.004 127.108 202.537C126.788 203.07 126.628 203.684 126.628 204.38V214H122.772ZM141.237 214.32C139.596 214.32 138.179 213.979 136.986 213.297C135.8 212.608 134.887 211.635 134.248 210.378C133.609 209.114 133.289 207.626 133.289 205.914C133.289 204.231 133.609 202.754 134.248 201.482C134.894 200.204 135.796 199.21 136.954 198.499C138.112 197.782 139.472 197.423 141.034 197.423C142.043 197.423 142.994 197.587 143.889 197.913C144.791 198.233 145.587 198.73 146.276 199.405C146.972 200.08 147.519 200.939 147.916 201.983C148.314 203.02 148.513 204.256 148.513 205.69V206.873H135.1V204.273H144.816C144.809 203.535 144.649 202.878 144.337 202.303C144.024 201.72 143.587 201.262 143.026 200.928C142.472 200.594 141.826 200.428 141.087 200.428C140.299 200.428 139.607 200.619 139.01 201.003C138.413 201.379 137.948 201.876 137.614 202.494C137.288 203.105 137.121 203.776 137.114 204.508V206.777C137.114 207.729 137.288 208.545 137.636 209.227C137.984 209.902 138.47 210.42 139.095 210.783C139.72 211.138 140.452 211.315 141.29 211.315C141.851 211.315 142.359 211.237 142.813 211.081C143.268 210.918 143.662 210.68 143.996 210.367C144.33 210.055 144.582 209.668 144.752 209.206L148.353 209.611C148.126 210.562 147.693 211.393 147.053 212.104C146.421 212.807 145.612 213.354 144.624 213.744C143.637 214.128 142.508 214.32 141.237 214.32ZM163.926 214.33C162.889 214.33 161.955 214.146 161.124 213.776C160.3 213.4 159.647 212.846 159.164 212.114C158.688 211.383 158.45 210.481 158.45 209.408C158.45 208.485 158.62 207.722 158.961 207.118C159.302 206.514 159.767 206.031 160.357 205.669C160.946 205.307 161.61 205.033 162.349 204.849C163.095 204.657 163.865 204.518 164.661 204.433C165.62 204.334 166.397 204.245 166.994 204.167C167.59 204.082 168.024 203.954 168.294 203.783C168.571 203.606 168.709 203.332 168.709 202.963V202.899C168.709 202.097 168.471 201.475 167.995 201.035C167.519 200.594 166.834 200.374 165.939 200.374C164.995 200.374 164.245 200.58 163.691 200.992C163.144 201.404 162.775 201.891 162.583 202.452L158.983 201.94C159.267 200.946 159.735 200.115 160.389 199.447C161.042 198.773 161.841 198.268 162.786 197.935C163.73 197.594 164.774 197.423 165.918 197.423C166.706 197.423 167.491 197.516 168.272 197.7C169.054 197.885 169.767 198.19 170.414 198.616C171.06 199.036 171.578 199.607 171.969 200.332C172.367 201.056 172.566 201.962 172.566 203.048V214H168.858V211.752H168.73C168.496 212.207 168.166 212.633 167.74 213.031C167.321 213.421 166.791 213.737 166.152 213.979C165.52 214.213 164.778 214.33 163.926 214.33ZM164.927 211.496C165.701 211.496 166.372 211.344 166.941 211.038C167.509 210.726 167.946 210.314 168.251 209.803C168.563 209.291 168.72 208.734 168.72 208.13V206.202C168.599 206.301 168.393 206.393 168.102 206.479C167.818 206.564 167.498 206.638 167.143 206.702C166.788 206.766 166.436 206.823 166.088 206.873C165.74 206.923 165.438 206.965 165.183 207.001C164.608 207.079 164.093 207.207 163.638 207.384C163.184 207.562 162.825 207.81 162.562 208.13C162.299 208.442 162.168 208.847 162.168 209.344C162.168 210.055 162.427 210.591 162.946 210.953C163.464 211.315 164.125 211.496 164.927 211.496ZM183.885 214V197.636H187.624V200.364H187.795C188.093 199.419 188.604 198.691 189.329 198.18C190.06 197.661 190.895 197.402 191.832 197.402C192.045 197.402 192.283 197.413 192.546 197.434C192.816 197.448 193.04 197.473 193.217 197.509V201.056C193.054 200.999 192.795 200.95 192.44 200.907C192.092 200.857 191.754 200.832 191.427 200.832C190.724 200.832 190.092 200.985 189.531 201.29C188.977 201.589 188.54 202.004 188.221 202.537C187.901 203.07 187.741 203.684 187.741 204.38V214H183.885ZM195.779 214V197.636H199.636V214H195.779ZM197.718 195.314C197.108 195.314 196.582 195.112 196.142 194.707C195.701 194.295 195.481 193.801 195.481 193.226C195.481 192.643 195.701 192.15 196.142 191.745C196.582 191.333 197.108 191.127 197.718 191.127C198.336 191.127 198.862 191.333 199.295 191.745C199.735 192.15 199.956 192.643 199.956 193.226C199.956 193.801 199.735 194.295 199.295 194.707C198.862 195.112 198.336 195.314 197.718 195.314ZM209.674 214.288C208.389 214.288 207.238 213.957 206.222 213.297C205.207 212.636 204.404 211.678 203.815 210.42C203.225 209.163 202.93 207.636 202.93 205.839C202.93 204.021 203.229 202.487 203.825 201.237C204.429 199.98 205.242 199.032 206.265 198.393C207.288 197.746 208.428 197.423 209.685 197.423C210.644 197.423 211.432 197.587 212.05 197.913C212.668 198.233 213.158 198.62 213.52 199.075C213.882 199.522 214.163 199.945 214.362 200.342H214.521V192.182H218.389V214H214.596V211.422H214.362C214.163 211.82 213.875 212.242 213.499 212.69C213.122 213.13 212.625 213.506 212.007 213.819C211.389 214.131 210.612 214.288 209.674 214.288ZM210.75 211.124C211.567 211.124 212.263 210.903 212.838 210.463C213.413 210.016 213.85 209.394 214.149 208.599C214.447 207.803 214.596 206.876 214.596 205.818C214.596 204.76 214.447 203.84 214.149 203.059C213.857 202.278 213.424 201.67 212.849 201.237C212.281 200.804 211.581 200.587 210.75 200.587C209.891 200.587 209.173 200.811 208.598 201.259C208.023 201.706 207.59 202.324 207.298 203.112C207.007 203.901 206.862 204.803 206.862 205.818C206.862 206.841 207.007 207.754 207.298 208.556C207.597 209.352 208.033 209.98 208.609 210.442C209.191 210.896 209.905 211.124 210.75 211.124ZM229.742 214.32C228.102 214.32 226.685 213.979 225.492 213.297C224.306 212.608 223.393 211.635 222.754 210.378C222.115 209.114 221.795 207.626 221.795 205.914C221.795 204.231 222.115 202.754 222.754 201.482C223.4 200.204 224.302 199.21 225.46 198.499C226.617 197.782 227.978 197.423 229.54 197.423C230.549 197.423 231.5 197.587 232.395 197.913C233.297 198.233 234.093 198.73 234.782 199.405C235.478 200.08 236.024 200.939 236.422 201.983C236.82 203.02 237.019 204.256 237.019 205.69V206.873H223.606V204.273H233.322C233.315 203.535 233.155 202.878 232.843 202.303C232.53 201.72 232.093 201.262 231.532 200.928C230.978 200.594 230.332 200.428 229.593 200.428C228.805 200.428 228.112 200.619 227.516 201.003C226.919 201.379 226.454 201.876 226.12 202.494C225.794 203.105 225.627 203.776 225.62 204.508V206.777C225.62 207.729 225.794 208.545 226.142 209.227C226.49 209.902 226.976 210.42 227.601 210.783C228.226 211.138 228.958 211.315 229.796 211.315C230.357 211.315 230.865 211.237 231.319 211.081C231.774 210.918 232.168 210.68 232.502 210.367C232.835 210.055 233.088 209.668 233.258 209.206L236.859 209.611C236.632 210.562 236.198 211.393 235.559 212.104C234.927 212.807 234.117 213.354 233.13 213.744C232.143 214.128 231.014 214.32 229.742 214.32Z" fill="black"/>
<path d="M292.619 485.182H297.455L303.933 500.991H304.188L310.666 485.182H315.502V507H311.71V492.011H311.507L305.477 506.936H302.644L296.614 491.979H296.411V507H292.619V485.182ZM326.88 507.32C325.24 507.32 323.823 506.979 322.629 506.297C321.443 505.608 320.531 504.635 319.892 503.378C319.252 502.114 318.933 500.626 318.933 498.914C318.933 497.231 319.252 495.754 319.892 494.482C320.538 493.204 321.44 492.21 322.597 491.499C323.755 490.782 325.115 490.423 326.678 490.423C327.686 490.423 328.638 490.587 329.533 490.913C330.435 491.233 331.23 491.73 331.919 492.405C332.615 493.08 333.162 493.939 333.56 494.983C333.958 496.02 334.156 497.256 334.156 498.69V499.873H320.744V497.273H330.46C330.453 496.535 330.293 495.878 329.98 495.303C329.668 494.72 329.231 494.262 328.67 493.928C328.116 493.594 327.47 493.428 326.731 493.428C325.943 493.428 325.25 493.619 324.654 494.003C324.057 494.379 323.592 494.876 323.258 495.494C322.931 496.105 322.764 496.776 322.757 497.508V499.777C322.757 500.729 322.931 501.545 323.279 502.227C323.627 502.902 324.114 503.42 324.739 503.783C325.364 504.138 326.095 504.315 326.933 504.315C327.494 504.315 328.002 504.237 328.457 504.081C328.911 503.918 329.306 503.68 329.639 503.367C329.973 503.055 330.225 502.668 330.396 502.206L333.997 502.611C333.769 503.562 333.336 504.393 332.697 505.104C332.065 505.807 331.255 506.354 330.268 506.744C329.281 507.128 328.151 507.32 326.88 507.32ZM344.663 507.32C343.023 507.32 341.606 506.979 340.413 506.297C339.227 505.608 338.314 504.635 337.675 503.378C337.036 502.114 336.716 500.626 336.716 498.914C336.716 497.231 337.036 495.754 337.675 494.482C338.321 493.204 339.223 492.21 340.381 491.499C341.538 490.782 342.898 490.423 344.461 490.423C345.469 490.423 346.421 490.587 347.316 490.913C348.218 491.233 349.013 491.73 349.702 492.405C350.398 493.08 350.945 493.939 351.343 494.983C351.741 496.02 351.94 497.256 351.94 498.69V499.873H338.527V497.273H348.243C348.236 496.535 348.076 495.878 347.763 495.303C347.451 494.72 347.014 494.262 346.453 493.928C345.899 493.594 345.253 493.428 344.514 493.428C343.726 493.428 343.033 493.619 342.437 494.003C341.84 494.379 341.375 494.876 341.041 495.494C340.714 496.105 340.548 496.776 340.54 497.508V499.777C340.54 500.729 340.714 501.545 341.062 502.227C341.411 502.902 341.897 503.42 342.522 503.783C343.147 504.138 343.879 504.315 344.717 504.315C345.278 504.315 345.786 504.237 346.24 504.081C346.695 503.918 347.089 503.68 347.423 503.367C347.756 503.055 348.009 502.668 348.179 502.206L351.78 502.611C351.553 503.562 351.119 504.393 350.48 505.104C349.848 505.807 349.038 506.354 348.051 506.744C347.064 507.128 345.935 507.32 344.663 507.32ZM363.373 490.636V493.619H353.966V490.636H363.373ZM356.289 486.716H360.145V502.078C360.145 502.597 360.224 502.994 360.38 503.271C360.543 503.541 360.756 503.726 361.019 503.825C361.282 503.925 361.573 503.974 361.893 503.974C362.134 503.974 362.354 503.957 362.553 503.921C362.759 503.886 362.915 503.854 363.022 503.825L363.672 506.84C363.466 506.911 363.171 506.989 362.787 507.075C362.411 507.16 361.949 507.21 361.403 507.224C360.437 507.252 359.567 507.107 358.792 506.787C358.018 506.46 357.404 505.956 356.949 505.274C356.502 504.592 356.282 503.74 356.289 502.717V486.716ZM378.749 507.33C377.712 507.33 376.778 507.146 375.947 506.776C375.123 506.4 374.47 505.846 373.987 505.114C373.511 504.383 373.273 503.481 373.273 502.408C373.273 501.485 373.444 500.722 373.784 500.118C374.125 499.514 374.591 499.031 375.18 498.669C375.77 498.307 376.434 498.033 377.172 497.849C377.918 497.657 378.689 497.518 379.484 497.433C380.443 497.334 381.221 497.245 381.817 497.167C382.414 497.082 382.847 496.954 383.117 496.783C383.394 496.606 383.532 496.332 383.532 495.963V495.899C383.532 495.097 383.294 494.475 382.819 494.035C382.343 493.594 381.657 493.374 380.762 493.374C379.818 493.374 379.069 493.58 378.515 493.992C377.968 494.404 377.598 494.891 377.407 495.452L373.806 494.94C374.09 493.946 374.559 493.115 375.212 492.447C375.865 491.773 376.664 491.268 377.609 490.935C378.554 490.594 379.598 490.423 380.741 490.423C381.529 490.423 382.314 490.516 383.096 490.7C383.877 490.885 384.591 491.19 385.237 491.616C385.883 492.036 386.402 492.607 386.792 493.332C387.19 494.056 387.389 494.962 387.389 496.048V507H383.681V504.752H383.554C383.319 505.207 382.989 505.633 382.563 506.031C382.144 506.421 381.615 506.737 380.975 506.979C380.343 507.213 379.601 507.33 378.749 507.33ZM379.75 504.496C380.525 504.496 381.196 504.344 381.764 504.038C382.332 503.726 382.769 503.314 383.074 502.803C383.387 502.291 383.543 501.734 383.543 501.13V499.202C383.422 499.301 383.216 499.393 382.925 499.479C382.641 499.564 382.321 499.638 381.966 499.702C381.611 499.766 381.26 499.823 380.912 499.873C380.564 499.923 380.262 499.965 380.006 500.001C379.431 500.079 378.916 500.207 378.461 500.384C378.007 500.562 377.648 500.81 377.385 501.13C377.123 501.442 376.991 501.847 376.991 502.344C376.991 503.055 377.25 503.591 377.769 503.953C378.287 504.315 378.948 504.496 379.75 504.496ZM399.438 490.636V493.619H390.031V490.636H399.438ZM392.353 486.716H396.21V502.078C396.21 502.597 396.288 502.994 396.444 503.271C396.608 503.541 396.821 503.726 397.083 503.825C397.346 503.925 397.637 503.974 397.957 503.974C398.199 503.974 398.419 503.957 398.618 503.921C398.824 503.886 398.98 503.854 399.086 503.825L399.736 506.84C399.53 506.911 399.235 506.989 398.852 507.075C398.475 507.16 398.014 507.21 397.467 507.224C396.501 507.252 395.631 507.107 394.857 506.787C394.083 506.46 393.468 505.956 393.014 505.274C392.566 504.592 392.346 503.74 392.353 502.717V486.716ZM410.105 513.136V490.636H413.897V493.342H414.121C414.32 492.945 414.6 492.522 414.963 492.075C415.325 491.62 415.815 491.233 416.433 490.913C417.051 490.587 417.839 490.423 418.798 490.423C420.062 490.423 421.202 490.746 422.218 491.393C423.24 492.032 424.05 492.98 424.646 494.237C425.25 495.487 425.552 497.021 425.552 498.839C425.552 500.636 425.257 502.163 424.668 503.42C424.078 504.678 423.276 505.636 422.26 506.297C421.244 506.957 420.094 507.288 418.808 507.288C417.871 507.288 417.093 507.131 416.475 506.819C415.857 506.506 415.36 506.13 414.984 505.69C414.615 505.242 414.327 504.82 414.121 504.422H413.961V513.136H410.105ZM413.887 498.818C413.887 499.876 414.036 500.803 414.334 501.599C414.639 502.394 415.076 503.016 415.644 503.463C416.22 503.903 416.916 504.124 417.732 504.124C418.585 504.124 419.298 503.896 419.874 503.442C420.449 502.98 420.882 502.352 421.173 501.556C421.472 500.754 421.621 499.841 421.621 498.818C421.621 497.803 421.475 496.901 421.184 496.112C420.893 495.324 420.46 494.706 419.884 494.259C419.309 493.811 418.592 493.587 417.732 493.587C416.909 493.587 416.209 493.804 415.634 494.237C415.058 494.67 414.622 495.278 414.323 496.059C414.032 496.84 413.887 497.76 413.887 498.818ZM428.855 507V490.636H432.711V507H428.855ZM430.794 488.314C430.183 488.314 429.657 488.112 429.217 487.707C428.776 487.295 428.556 486.801 428.556 486.226C428.556 485.643 428.776 485.15 429.217 484.745C429.657 484.333 430.183 484.127 430.794 484.127C431.411 484.127 431.937 484.333 432.37 484.745C432.811 485.15 433.031 485.643 433.031 486.226C433.031 486.801 432.811 487.295 432.37 487.707C431.937 488.112 431.411 488.314 430.794 488.314ZM443.815 507.32C442.181 507.32 440.778 506.961 439.607 506.244C438.442 505.526 437.543 504.536 436.911 503.271C436.286 502 435.974 500.537 435.974 498.882C435.974 497.22 436.293 495.754 436.933 494.482C437.572 493.204 438.474 492.21 439.638 491.499C440.81 490.782 442.195 490.423 443.793 490.423C445.121 490.423 446.297 490.668 447.32 491.158C448.349 491.641 449.17 492.327 449.781 493.214C450.391 494.095 450.739 495.125 450.825 496.304H447.138C446.989 495.516 446.634 494.859 446.073 494.333C445.519 493.8 444.777 493.534 443.847 493.534C443.058 493.534 442.366 493.747 441.769 494.173C441.173 494.592 440.707 495.196 440.374 495.984C440.047 496.773 439.884 497.717 439.884 498.818C439.884 499.933 440.047 500.892 440.374 501.695C440.7 502.49 441.158 503.104 441.748 503.538C442.344 503.964 443.044 504.177 443.847 504.177C444.415 504.177 444.923 504.07 445.37 503.857C445.825 503.637 446.205 503.321 446.51 502.909C446.815 502.497 447.025 501.996 447.138 501.407H450.825C450.732 502.565 450.391 503.591 449.802 504.486C449.212 505.374 448.41 506.07 447.394 506.574C446.379 507.071 445.185 507.32 443.815 507.32ZM457.507 501.865L457.496 497.21H458.114L463.995 490.636H468.501L461.268 498.69H460.469L457.507 501.865ZM453.991 507V485.182H457.848V507H453.991ZM464.261 507L458.934 499.553L461.534 496.837L468.874 507H464.261ZM488.942 500.118V490.636H492.799V507H489.06V504.092H488.889C488.52 505.008 487.913 505.757 487.067 506.339C486.229 506.922 485.196 507.213 483.967 507.213C482.895 507.213 481.947 506.975 481.123 506.499C480.306 506.016 479.667 505.317 479.205 504.401C478.744 503.477 478.513 502.362 478.513 501.055V490.636H482.369V500.459C482.369 501.496 482.653 502.32 483.222 502.93C483.79 503.541 484.536 503.847 485.459 503.847C486.027 503.847 486.577 503.708 487.11 503.431C487.643 503.154 488.08 502.742 488.42 502.195C488.768 501.641 488.942 500.949 488.942 500.118ZM496.765 513.136V490.636H500.557V493.342H500.781C500.98 492.945 501.26 492.522 501.623 492.075C501.985 491.62 502.475 491.233 503.093 490.913C503.711 490.587 504.499 490.423 505.458 490.423C506.722 490.423 507.862 490.746 508.878 491.393C509.9 492.032 510.71 492.98 511.307 494.237C511.91 495.487 512.212 497.021 512.212 498.839C512.212 500.636 511.917 502.163 511.328 503.42C510.738 504.678 509.936 505.636 508.92 506.297C507.905 506.957 506.754 507.288 505.469 507.288C504.531 507.288 503.753 507.131 503.135 506.819C502.518 506.506 502.02 506.13 501.644 505.69C501.275 505.242 500.987 504.82 500.781 504.422H500.621V513.136H496.765ZM500.547 498.818C500.547 499.876 500.696 500.803 500.994 501.599C501.3 502.394 501.736 503.016 502.305 503.463C502.88 503.903 503.576 504.124 504.393 504.124C505.245 504.124 505.959 503.896 506.534 503.442C507.109 502.98 507.542 502.352 507.834 501.556C508.132 500.754 508.281 499.841 508.281 498.818C508.281 497.803 508.135 496.901 507.844 496.112C507.553 495.324 507.12 494.706 506.545 494.259C505.969 493.811 505.252 493.587 504.393 493.587C503.569 493.587 502.869 493.804 502.294 494.237C501.719 494.67 501.282 495.278 500.983 496.059C500.692 496.84 500.547 497.76 500.547 498.818ZM278.844 521.182V543H274.987V521.182H278.844ZM289.947 543.32C288.349 543.32 286.964 542.968 285.793 542.265C284.621 541.562 283.712 540.578 283.065 539.314C282.426 538.05 282.107 536.572 282.107 534.882C282.107 533.192 282.426 531.711 283.065 530.44C283.712 529.168 284.621 528.181 285.793 527.478C286.964 526.775 288.349 526.423 289.947 526.423C291.545 526.423 292.93 526.775 294.102 527.478C295.274 528.181 296.18 529.168 296.819 530.44C297.465 531.711 297.788 533.192 297.788 534.882C297.788 536.572 297.465 538.05 296.819 539.314C296.18 540.578 295.274 541.562 294.102 542.265C292.93 542.968 291.545 543.32 289.947 543.32ZM289.969 540.23C290.835 540.23 291.56 539.992 292.142 539.516C292.724 539.033 293.158 538.387 293.442 537.577C293.733 536.768 293.879 535.866 293.879 534.871C293.879 533.87 293.733 532.964 293.442 532.155C293.158 531.338 292.724 530.688 292.142 530.205C291.56 529.722 290.835 529.481 289.969 529.481C289.081 529.481 288.342 529.722 287.753 530.205C287.17 530.688 286.734 531.338 286.442 532.155C286.158 532.964 286.016 533.87 286.016 534.871C286.016 535.866 286.158 536.768 286.442 537.577C286.734 538.387 287.17 539.033 287.753 539.516C288.342 539.992 289.081 540.23 289.969 540.23ZM308.199 543.32C306.566 543.32 305.163 542.961 303.991 542.244C302.827 541.526 301.928 540.536 301.296 539.271C300.671 538 300.358 536.537 300.358 534.882C300.358 533.22 300.678 531.754 301.317 530.482C301.956 529.204 302.858 528.21 304.023 527.499C305.195 526.782 306.58 526.423 308.178 526.423C309.506 526.423 310.682 526.668 311.704 527.158C312.734 527.641 313.555 528.327 314.165 529.214C314.776 530.095 315.124 531.125 315.209 532.304H311.523C311.374 531.516 311.019 530.859 310.458 530.333C309.904 529.8 309.162 529.534 308.231 529.534C307.443 529.534 306.751 529.747 306.154 530.173C305.557 530.592 305.092 531.196 304.758 531.984C304.432 532.773 304.268 533.717 304.268 534.818C304.268 535.933 304.432 536.892 304.758 537.695C305.085 538.49 305.543 539.104 306.133 539.538C306.729 539.964 307.429 540.177 308.231 540.177C308.8 540.177 309.307 540.07 309.755 539.857C310.209 539.637 310.589 539.321 310.895 538.909C311.2 538.497 311.41 537.996 311.523 537.407H315.209C315.117 538.565 314.776 539.591 314.187 540.486C313.597 541.374 312.795 542.07 311.779 542.574C310.763 543.071 309.57 543.32 308.199 543.32ZM323.085 543.33C322.048 543.33 321.114 543.146 320.283 542.776C319.459 542.4 318.806 541.846 318.323 541.114C317.847 540.383 317.609 539.481 317.609 538.408C317.609 537.485 317.779 536.722 318.12 536.118C318.461 535.514 318.926 535.031 319.516 534.669C320.105 534.307 320.77 534.033 321.508 533.849C322.254 533.657 323.025 533.518 323.82 533.433C324.779 533.334 325.556 533.245 326.153 533.167C326.75 533.082 327.183 532.954 327.453 532.783C327.73 532.606 327.868 532.332 327.868 531.963V531.899C327.868 531.097 327.63 530.475 327.154 530.035C326.679 529.594 325.993 529.374 325.098 529.374C324.154 529.374 323.404 529.58 322.85 529.992C322.304 530.404 321.934 530.891 321.743 531.452L318.142 530.94C318.426 529.946 318.895 529.115 319.548 528.447C320.201 527.773 321 527.268 321.945 526.935C322.89 526.594 323.934 526.423 325.077 526.423C325.865 526.423 326.65 526.516 327.431 526.7C328.213 526.885 328.926 527.19 329.573 527.616C330.219 528.036 330.738 528.607 331.128 529.332C331.526 530.056 331.725 530.962 331.725 532.048V543H328.017V540.752H327.89C327.655 541.207 327.325 541.633 326.899 542.031C326.48 542.421 325.951 542.737 325.311 542.979C324.679 543.213 323.937 543.33 323.085 543.33ZM324.086 540.496C324.86 540.496 325.532 540.344 326.1 540.038C326.668 539.726 327.105 539.314 327.41 538.803C327.723 538.291 327.879 537.734 327.879 537.13V535.202C327.758 535.301 327.552 535.393 327.261 535.479C326.977 535.564 326.657 535.638 326.302 535.702C325.947 535.766 325.596 535.823 325.248 535.873C324.9 535.923 324.598 535.965 324.342 536.001C323.767 536.079 323.252 536.207 322.797 536.384C322.343 536.562 321.984 536.81 321.721 537.13C321.458 537.442 321.327 537.847 321.327 538.344C321.327 539.055 321.586 539.591 322.105 539.953C322.623 540.315 323.284 540.496 324.086 540.496ZM343.774 526.636V529.619H334.367V526.636H343.774ZM336.689 522.716H340.546V538.078C340.546 538.597 340.624 538.994 340.78 539.271C340.944 539.541 341.157 539.726 341.419 539.825C341.682 539.925 341.973 539.974 342.293 539.974C342.534 539.974 342.755 539.957 342.953 539.921C343.159 539.886 343.316 539.854 343.422 539.825L344.072 542.84C343.866 542.911 343.571 542.989 343.188 543.075C342.811 543.16 342.35 543.21 341.803 543.224C340.837 543.252 339.967 543.107 339.193 542.787C338.419 542.46 337.804 541.956 337.35 541.274C336.902 540.592 336.682 539.74 336.689 538.717V522.716ZM346.999 543V526.636H350.856V543H346.999ZM348.938 524.314C348.327 524.314 347.802 524.112 347.361 523.707C346.921 523.295 346.701 522.801 346.701 522.226C346.701 521.643 346.921 521.15 347.361 520.745C347.802 520.333 348.327 520.127 348.938 520.127C349.556 520.127 350.081 520.333 350.515 520.745C350.955 521.15 351.175 521.643 351.175 522.226C351.175 522.801 350.955 523.295 350.515 523.707C350.081 524.112 349.556 524.314 348.938 524.314ZM361.959 543.32C360.361 543.32 358.976 542.968 357.804 542.265C356.632 541.562 355.723 540.578 355.077 539.314C354.438 538.05 354.118 536.572 354.118 534.882C354.118 533.192 354.438 531.711 355.077 530.44C355.723 529.168 356.632 528.181 357.804 527.478C358.976 526.775 360.361 526.423 361.959 526.423C363.557 526.423 364.942 526.775 366.114 527.478C367.286 528.181 368.191 529.168 368.831 530.44C369.477 531.711 369.8 533.192 369.8 534.882C369.8 536.572 369.477 538.05 368.831 539.314C368.191 540.578 367.286 541.562 366.114 542.265C364.942 542.968 363.557 543.32 361.959 543.32ZM361.98 540.23C362.847 540.23 363.571 539.992 364.154 539.516C364.736 539.033 365.169 538.387 365.453 537.577C365.745 536.768 365.89 535.866 365.89 534.871C365.89 533.87 365.745 532.964 365.453 532.155C365.169 531.338 364.736 530.688 364.154 530.205C363.571 529.722 362.847 529.481 361.98 529.481C361.093 529.481 360.354 529.722 359.765 530.205C359.182 530.688 358.745 531.338 358.454 532.155C358.17 532.964 358.028 533.87 358.028 534.871C358.028 535.866 358.17 536.768 358.454 537.577C358.745 538.387 359.182 539.033 359.765 539.516C360.354 539.992 361.093 540.23 361.98 540.23ZM376.93 533.412V543H373.073V526.636H376.759V529.417H376.951C377.328 528.501 377.928 527.773 378.752 527.233C379.583 526.693 380.609 526.423 381.83 526.423C382.96 526.423 383.943 526.665 384.781 527.148C385.627 527.631 386.28 528.33 386.742 529.246C387.21 530.163 387.441 531.274 387.434 532.581V543H383.578V533.178C383.578 532.084 383.294 531.228 382.725 530.61C382.164 529.992 381.387 529.683 380.392 529.683C379.718 529.683 379.117 529.832 378.592 530.131C378.073 530.422 377.665 530.844 377.367 531.398C377.075 531.952 376.93 532.624 376.93 533.412ZM403.505 543.33C402.468 543.33 401.534 543.146 400.703 542.776C399.879 542.4 399.226 541.846 398.743 541.114C398.267 540.383 398.029 539.481 398.029 538.408C398.029 537.485 398.199 536.722 398.54 536.118C398.881 535.514 399.346 535.031 399.936 534.669C400.525 534.307 401.189 534.033 401.928 533.849C402.674 533.657 403.444 533.518 404.24 533.433C405.199 533.334 405.976 533.245 406.573 533.167C407.17 533.082 407.603 532.954 407.873 532.783C408.15 532.606 408.288 532.332 408.288 531.963V531.899C408.288 531.097 408.05 530.475 407.574 530.035C407.099 529.594 406.413 529.374 405.518 529.374C404.574 529.374 403.824 529.58 403.27 529.992C402.724 530.404 402.354 530.891 402.162 531.452L398.562 530.94C398.846 529.946 399.314 529.115 399.968 528.447C400.621 527.773 401.42 527.268 402.365 526.935C403.309 526.594 404.354 526.423 405.497 526.423C406.285 526.423 407.07 526.516 407.851 526.7C408.633 526.885 409.346 527.19 409.993 527.616C410.639 528.036 411.157 528.607 411.548 529.332C411.946 530.056 412.145 530.962 412.145 532.048V543H408.437V540.752H408.309C408.075 541.207 407.745 541.633 407.319 542.031C406.9 542.421 406.371 542.737 405.731 542.979C405.099 543.213 404.357 543.33 403.505 543.33ZM404.506 540.496C405.28 540.496 405.952 540.344 406.52 540.038C407.088 539.726 407.525 539.314 407.83 538.803C408.143 538.291 408.299 537.734 408.299 537.13V535.202C408.178 535.301 407.972 535.393 407.681 535.479C407.397 535.564 407.077 535.638 406.722 535.702C406.367 535.766 406.015 535.823 405.667 535.873C405.319 535.923 405.018 535.965 404.762 536.001C404.187 536.079 403.672 536.207 403.217 536.384C402.763 536.562 402.404 536.81 402.141 537.13C401.878 537.442 401.747 537.847 401.747 538.344C401.747 539.055 402.006 539.591 402.525 539.953C403.043 540.315 403.704 540.496 404.506 540.496ZM424.194 526.636V529.619H414.787V526.636H424.194ZM417.109 522.716H420.966V538.078C420.966 538.597 421.044 538.994 421.2 539.271C421.363 539.541 421.577 539.726 421.839 539.825C422.102 539.925 422.393 539.974 422.713 539.974C422.954 539.974 423.175 539.957 423.373 539.921C423.579 539.886 423.736 539.854 423.842 539.825L424.492 542.84C424.286 542.911 423.991 542.989 423.608 543.075C423.231 543.16 422.77 543.21 422.223 543.224C421.257 543.252 420.387 543.107 419.613 542.787C418.839 542.46 418.224 541.956 417.77 541.274C417.322 540.592 417.102 539.74 417.109 538.717V522.716ZM439.569 543.33C438.532 543.33 437.598 543.146 436.767 542.776C435.944 542.4 435.29 541.846 434.807 541.114C434.331 540.383 434.093 539.481 434.093 538.408C434.093 537.485 434.264 536.722 434.605 536.118C434.946 535.514 435.411 535.031 436 534.669C436.59 534.307 437.254 534.033 437.993 533.849C438.738 533.657 439.509 533.518 440.304 533.433C441.263 533.334 442.041 533.245 442.637 533.167C443.234 533.082 443.667 532.954 443.937 532.783C444.214 532.606 444.353 532.332 444.353 531.963V531.899C444.353 531.097 444.115 530.475 443.639 530.035C443.163 529.594 442.478 529.374 441.583 529.374C440.638 529.374 439.889 529.58 439.335 529.992C438.788 530.404 438.419 530.891 438.227 531.452L434.626 530.94C434.91 529.946 435.379 529.115 436.032 528.447C436.686 527.773 437.485 527.268 438.429 526.935C439.374 526.594 440.418 526.423 441.561 526.423C442.35 526.423 443.135 526.516 443.916 526.7C444.697 526.885 445.411 527.19 446.057 527.616C446.703 528.036 447.222 528.607 447.613 529.332C448.01 530.056 448.209 530.962 448.209 532.048V543H444.502V540.752H444.374C444.14 541.207 443.809 541.633 443.383 542.031C442.964 542.421 442.435 542.737 441.796 542.979C441.164 543.213 440.422 543.33 439.569 543.33ZM440.571 540.496C441.345 540.496 442.016 540.344 442.584 540.038C443.152 539.726 443.589 539.314 443.895 538.803C444.207 538.291 444.363 537.734 444.363 537.13V535.202C444.243 535.301 444.037 535.393 443.745 535.479C443.461 535.564 443.142 535.638 442.787 535.702C442.431 535.766 442.08 535.823 441.732 535.873C441.384 535.923 441.082 535.965 440.826 536.001C440.251 536.079 439.736 536.207 439.282 536.384C438.827 536.562 438.468 536.81 438.206 537.13C437.943 537.442 437.811 537.847 437.811 538.344C437.811 539.055 438.071 539.591 438.589 539.953C439.108 540.315 439.768 540.496 440.571 540.496ZM452.087 543V526.636H455.944V543H452.087ZM454.026 524.314C453.415 524.314 452.89 524.112 452.449 523.707C452.009 523.295 451.789 522.801 451.789 522.226C451.789 521.643 452.009 521.15 452.449 520.745C452.89 520.333 453.415 520.127 454.026 520.127C454.644 520.127 455.169 520.333 455.603 520.745C456.043 521.15 456.263 521.643 456.263 522.226C456.263 522.801 456.043 523.295 455.603 523.707C455.169 524.112 454.644 524.314 454.026 524.314ZM459.909 543V526.636H463.649V529.364H463.819C464.117 528.419 464.629 527.691 465.353 527.18C466.085 526.661 466.919 526.402 467.857 526.402C468.07 526.402 468.308 526.413 468.57 526.434C468.84 526.448 469.064 526.473 469.242 526.509V530.056C469.078 529.999 468.819 529.95 468.464 529.907C468.116 529.857 467.779 529.832 467.452 529.832C466.749 529.832 466.117 529.985 465.556 530.29C465.002 530.589 464.565 531.004 464.245 531.537C463.926 532.07 463.766 532.684 463.766 533.38V543H459.909ZM471.804 549.136V526.636H475.596V529.342H475.82C476.019 528.945 476.3 528.522 476.662 528.075C477.024 527.62 477.514 527.233 478.132 526.913C478.75 526.587 479.538 526.423 480.497 526.423C481.761 526.423 482.901 526.746 483.917 527.393C484.939 528.032 485.749 528.98 486.346 530.237C486.949 531.487 487.251 533.021 487.251 534.839C487.251 536.636 486.956 538.163 486.367 539.42C485.778 540.678 484.975 541.636 483.959 542.297C482.944 542.957 481.793 543.288 480.508 543.288C479.57 543.288 478.792 543.131 478.175 542.819C477.557 542.506 477.059 542.13 476.683 541.69C476.314 541.242 476.026 540.82 475.82 540.422H475.66V549.136H471.804ZM475.586 534.818C475.586 535.876 475.735 536.803 476.033 537.599C476.339 538.394 476.775 539.016 477.344 539.463C477.919 539.903 478.615 540.124 479.432 540.124C480.284 540.124 480.998 539.896 481.573 539.442C482.148 538.98 482.581 538.352 482.873 537.556C483.171 536.754 483.32 535.841 483.32 534.818C483.32 533.803 483.175 532.901 482.883 532.112C482.592 531.324 482.159 530.706 481.584 530.259C481.008 529.811 480.291 529.587 479.432 529.587C478.608 529.587 477.908 529.804 477.333 530.237C476.758 530.67 476.321 531.278 476.023 532.059C475.731 532.84 475.586 533.76 475.586 534.818ZM497.692 543.32C496.094 543.32 494.709 542.968 493.537 542.265C492.365 541.562 491.456 540.578 490.809 539.314C490.17 538.05 489.851 536.572 489.851 534.882C489.851 533.192 490.17 531.711 490.809 530.44C491.456 529.168 492.365 528.181 493.537 527.478C494.709 526.775 496.094 526.423 497.692 526.423C499.29 526.423 500.675 526.775 501.846 527.478C503.018 528.181 503.924 529.168 504.563 530.44C505.209 531.711 505.532 533.192 505.532 534.882C505.532 536.572 505.209 538.05 504.563 539.314C503.924 540.578 503.018 541.562 501.846 542.265C500.675 542.968 499.29 543.32 497.692 543.32ZM497.713 540.23C498.579 540.23 499.304 539.992 499.886 539.516C500.469 539.033 500.902 538.387 501.186 537.577C501.477 536.768 501.623 535.866 501.623 534.871C501.623 533.87 501.477 532.964 501.186 532.155C500.902 531.338 500.469 530.688 499.886 530.205C499.304 529.722 498.579 529.481 497.713 529.481C496.825 529.481 496.086 529.722 495.497 530.205C494.915 530.688 494.478 531.338 494.187 532.155C493.903 532.964 493.76 533.87 493.76 534.871C493.76 535.866 493.903 536.768 494.187 537.577C494.478 538.387 494.915 539.033 495.497 539.516C496.086 539.992 496.825 540.23 497.713 540.23ZM508.806 543V526.636H512.545V529.364H512.716C513.014 528.419 513.525 527.691 514.25 527.18C514.981 526.661 515.816 526.402 516.753 526.402C516.966 526.402 517.204 526.413 517.467 526.434C517.737 526.448 517.961 526.473 518.138 526.509V530.056C517.975 529.999 517.716 529.95 517.36 529.907C517.012 529.857 516.675 529.832 516.348 529.832C515.645 529.832 515.013 529.985 514.452 530.29C513.898 530.589 513.461 531.004 513.142 531.537C512.822 532.07 512.662 532.684 512.662 533.38V543H508.806ZM529.75 526.636V529.619H520.343V526.636H529.75ZM522.666 522.716H526.522V538.078C526.522 538.597 526.6 538.994 526.757 539.271C526.92 539.541 527.133 539.726 527.396 539.825C527.659 539.925 527.95 539.974 528.27 539.974C528.511 539.974 528.731 539.957 528.93 539.921C529.136 539.886 529.292 539.854 529.399 539.825L530.049 542.84C529.843 542.911 529.548 542.989 529.164 543.075C528.788 543.16 528.326 543.21 527.779 543.224C526.814 543.252 525.944 543.107 525.169 542.787C524.395 542.46 523.781 541.956 523.326 541.274C522.879 540.592 522.659 539.74 522.666 538.717V522.716Z" fill="black"/>
<path d="M1162.87 36.1797C1162.77 35.2493 1162.35 34.5249 1161.61 34.0064C1160.88 33.4879 1159.93 33.2287 1158.75 33.2287C1157.93 33.2287 1157.22 33.353 1156.63 33.6016C1156.04 33.8501 1155.59 34.1875 1155.28 34.6136C1154.97 35.0398 1154.81 35.5263 1154.8 36.0732C1154.8 36.5277 1154.91 36.9219 1155.11 37.2557C1155.32 37.5895 1155.61 37.8736 1155.97 38.108C1156.34 38.3352 1156.74 38.527 1157.18 38.6832C1157.62 38.8395 1158.06 38.9709 1158.51 39.0774L1160.55 39.5888C1161.38 39.7805 1162.17 40.0398 1162.93 40.3665C1163.7 40.6932 1164.38 41.1051 1164.99 41.6023C1165.6 42.0994 1166.08 42.6996 1166.44 43.4027C1166.79 44.1058 1166.97 44.9297 1166.97 45.8743C1166.97 47.1527 1166.64 48.2784 1165.99 49.2514C1165.33 50.2173 1164.39 50.9737 1163.15 51.5206C1161.93 52.0604 1160.44 52.3303 1158.69 52.3303C1156.99 52.3303 1155.52 52.0675 1154.27 51.5419C1153.03 51.0163 1152.05 50.2493 1151.35 49.2408C1150.65 48.2322 1150.28 47.0036 1150.22 45.5547H1154.11C1154.17 46.3146 1154.4 46.9467 1154.81 47.451C1155.22 47.9553 1155.76 48.3317 1156.42 48.5803C1157.09 48.8288 1157.83 48.9531 1158.66 48.9531C1159.52 48.9531 1160.27 48.8253 1160.92 48.5696C1161.57 48.3068 1162.08 47.9446 1162.45 47.483C1162.82 47.0142 1163.01 46.4673 1163.02 45.8423C1163.01 45.2741 1162.84 44.8054 1162.52 44.4361C1162.19 44.0597 1161.73 43.7472 1161.14 43.4986C1160.56 43.2429 1159.88 43.0156 1159.1 42.8168L1156.61 42.1776C1154.82 41.7159 1153.4 41.0163 1152.35 40.0788C1151.31 39.1342 1150.8 37.8807 1150.8 36.3182C1150.8 35.0327 1151.14 33.907 1151.84 32.9411C1152.54 31.9751 1153.5 31.2259 1154.71 30.6932C1155.91 30.1534 1157.28 29.8835 1158.81 29.8835C1160.36 29.8835 1161.71 30.1534 1162.88 30.6932C1164.05 31.2259 1164.97 31.968 1165.64 32.9197C1166.3 33.8643 1166.65 34.951 1166.67 36.1797H1162.87ZM1170.32 58.1364V35.6364H1174.11V38.3423H1174.34C1174.54 37.9446 1174.82 37.522 1175.18 37.0746C1175.54 36.62 1176.03 36.233 1176.65 35.9134C1177.27 35.5866 1178.06 35.4233 1179.01 35.4233C1180.28 35.4233 1181.42 35.7464 1182.43 36.3928C1183.46 37.032 1184.27 37.9801 1184.86 39.2372C1185.47 40.4872 1185.77 42.0213 1185.77 43.8395C1185.77 45.6364 1185.47 47.1634 1184.88 48.4205C1184.3 49.6776 1183.49 50.6364 1182.48 51.2969C1181.46 51.9574 1180.31 52.2876 1179.03 52.2876C1178.09 52.2876 1177.31 52.1314 1176.69 51.8189C1176.07 51.5064 1175.58 51.13 1175.2 50.6896C1174.83 50.2422 1174.54 49.8196 1174.34 49.4219H1174.18V58.1364H1170.32ZM1174.1 43.8182C1174.1 44.8764 1174.25 45.8033 1174.55 46.5987C1174.86 47.3942 1175.29 48.0156 1175.86 48.4631C1176.44 48.9034 1177.13 49.1236 1177.95 49.1236C1178.8 49.1236 1179.52 48.8963 1180.09 48.4418C1180.67 47.9801 1181.1 47.3516 1181.39 46.5561C1181.69 45.7536 1181.84 44.8409 1181.84 43.8182C1181.84 42.8026 1181.69 41.9006 1181.4 41.1122C1181.11 40.3239 1180.68 39.706 1180.1 39.2585C1179.53 38.8111 1178.81 38.5874 1177.95 38.5874C1177.13 38.5874 1176.43 38.804 1175.85 39.2372C1175.28 39.6705 1174.84 40.2777 1174.54 41.0589C1174.25 41.8402 1174.1 42.7599 1174.1 43.8182ZM1192.93 30.1818V52H1189.07V30.1818H1192.93ZM1196.89 52V35.6364H1200.75V52H1196.89ZM1198.83 33.3139C1198.22 33.3139 1197.7 33.1115 1197.26 32.7067C1196.82 32.2947 1196.6 31.8011 1196.6 31.2259C1196.6 30.6435 1196.82 30.1499 1197.26 29.745C1197.7 29.3331 1198.22 29.1271 1198.83 29.1271C1199.45 29.1271 1199.98 29.3331 1200.41 29.745C1200.85 30.1499 1201.07 30.6435 1201.07 31.2259C1201.07 31.8011 1200.85 32.2947 1200.41 32.7067C1199.98 33.1115 1199.45 33.3139 1198.83 33.3139ZM1212.89 35.6364V38.6193H1203.48V35.6364H1212.89ZM1205.8 31.7159H1209.66V47.0781C1209.66 47.5966 1209.74 47.9943 1209.89 48.2713C1210.06 48.5412 1210.27 48.7259 1210.53 48.8253C1210.8 48.9247 1211.09 48.9744 1211.41 48.9744C1211.65 48.9744 1211.87 48.9567 1212.07 48.9212C1212.27 48.8857 1212.43 48.8537 1212.54 48.8253L1213.19 51.8402C1212.98 51.9112 1212.68 51.9893 1212.3 52.0746C1211.92 52.1598 1211.46 52.2095 1210.92 52.2237C1209.95 52.2521 1209.08 52.1065 1208.31 51.7869C1207.53 51.4602 1206.92 50.956 1206.46 50.2741C1206.02 49.5923 1205.8 48.7401 1205.8 47.7173V31.7159ZM1231.84 35.6364V38.6193H1222.17V35.6364H1231.84ZM1224.59 52V34.0916C1224.59 32.9908 1224.81 32.0746 1225.27 31.343C1225.73 30.6115 1226.35 30.0646 1227.12 29.7024C1227.9 29.3402 1228.76 29.1591 1229.7 29.1591C1230.37 29.1591 1230.96 29.2124 1231.48 29.3189C1232 29.4254 1232.38 29.5213 1232.63 29.6065L1231.86 32.5895C1231.7 32.5398 1231.49 32.4901 1231.25 32.4403C1231 32.3835 1230.72 32.3551 1230.41 32.3551C1229.7 32.3551 1229.19 32.5291 1228.89 32.8771C1228.6 33.218 1228.45 33.7081 1228.45 34.3473V52H1224.59ZM1241.49 52.3196C1239.85 52.3196 1238.43 51.9787 1237.24 51.2969C1236.05 50.608 1235.14 49.6349 1234.5 48.3778C1233.86 47.1136 1233.54 45.6257 1233.54 43.9141C1233.54 42.2308 1233.86 40.7536 1234.5 39.4822C1235.15 38.2038 1236.05 37.2095 1237.21 36.4993C1238.37 35.782 1239.73 35.4233 1241.29 35.4233C1242.3 35.4233 1243.25 35.5866 1244.14 35.9134C1245.05 36.233 1245.84 36.7301 1246.53 37.4048C1247.23 38.0795 1247.77 38.9389 1248.17 39.983C1248.57 41.0199 1248.77 42.2557 1248.77 43.6903V44.8729H1235.36V42.2734H1245.07C1245.06 41.5348 1244.9 40.8778 1244.59 40.3026C1244.28 39.7202 1243.84 39.2621 1243.28 38.9283C1242.73 38.5945 1242.08 38.4276 1241.34 38.4276C1240.55 38.4276 1239.86 38.6193 1239.26 39.0028C1238.67 39.3793 1238.2 39.8764 1237.87 40.4943C1237.54 41.1051 1237.38 41.7763 1237.37 42.5078V44.777C1237.37 45.7287 1237.54 46.5455 1237.89 47.2273C1238.24 47.902 1238.73 48.4205 1239.35 48.7827C1239.98 49.1378 1240.71 49.3153 1241.54 49.3153C1242.11 49.3153 1242.61 49.2372 1243.07 49.081C1243.52 48.9176 1243.92 48.6797 1244.25 48.3672C1244.58 48.0547 1244.84 47.6676 1245.01 47.206L1248.61 47.6108C1248.38 48.5625 1247.95 49.3935 1247.31 50.1037C1246.68 50.8068 1245.87 51.3537 1244.88 51.7443C1243.89 52.1278 1242.76 52.3196 1241.49 52.3196ZM1259.27 52.3196C1257.63 52.3196 1256.22 51.9787 1255.02 51.2969C1253.84 50.608 1252.93 49.6349 1252.29 48.3778C1251.65 47.1136 1251.33 45.6257 1251.33 43.9141C1251.33 42.2308 1251.65 40.7536 1252.29 39.4822C1252.93 38.2038 1253.83 37.2095 1254.99 36.4993C1256.15 35.782 1257.51 35.4233 1259.07 35.4233C1260.08 35.4233 1261.03 35.5866 1261.93 35.9134C1262.83 36.233 1263.62 36.7301 1264.31 37.4048C1265.01 38.0795 1265.56 38.9389 1265.95 39.983C1266.35 41.0199 1266.55 42.2557 1266.55 43.6903V44.8729H1253.14V42.2734H1262.85C1262.85 41.5348 1262.69 40.8778 1262.37 40.3026C1262.06 39.7202 1261.63 39.2621 1261.06 38.9283C1260.51 38.5945 1259.86 38.4276 1259.13 38.4276C1258.34 38.4276 1257.64 38.6193 1257.05 39.0028C1256.45 39.3793 1255.99 39.8764 1255.65 40.4943C1255.33 41.1051 1255.16 41.7763 1255.15 42.5078V44.777C1255.15 45.7287 1255.33 46.5455 1255.67 47.2273C1256.02 47.902 1256.51 48.4205 1257.13 48.7827C1257.76 49.1378 1258.49 49.3153 1259.33 49.3153C1259.89 49.3153 1260.4 49.2372 1260.85 49.081C1261.31 48.9176 1261.7 48.6797 1262.03 48.3672C1262.37 48.0547 1262.62 47.6676 1262.79 47.206L1266.39 47.6108C1266.16 48.5625 1265.73 49.3935 1265.09 50.1037C1264.46 50.8068 1263.65 51.3537 1262.66 51.7443C1261.68 52.1278 1260.55 52.3196 1259.27 52.3196ZM1282.75 39.9616L1279.23 40.3452C1279.13 39.9901 1278.96 39.6562 1278.71 39.3438C1278.47 39.0312 1278.14 38.7791 1277.73 38.5874C1277.32 38.3956 1276.81 38.2997 1276.22 38.2997C1275.41 38.2997 1274.74 38.4737 1274.19 38.8217C1273.65 39.1697 1273.39 39.6207 1273.39 40.1747C1273.39 40.6506 1273.56 41.0376 1273.92 41.3359C1274.28 41.6342 1274.87 41.8793 1275.7 42.071L1278.5 42.6676C1280.04 43.0014 1281.19 43.5305 1281.95 44.255C1282.71 44.9794 1283.09 45.9276 1283.1 47.0994C1283.09 48.1293 1282.79 49.0384 1282.19 49.8267C1281.6 50.608 1280.78 51.2187 1279.73 51.6591C1278.68 52.0994 1277.47 52.3196 1276.11 52.3196C1274.11 52.3196 1272.49 51.9006 1271.27 51.0625C1270.05 50.2173 1269.32 49.0419 1269.09 47.5362L1272.85 47.174C1273.02 47.9126 1273.38 48.4702 1273.94 48.8466C1274.49 49.223 1275.21 49.4112 1276.1 49.4112C1277.02 49.4112 1277.75 49.223 1278.3 48.8466C1278.87 48.4702 1279.15 48.005 1279.15 47.451C1279.15 46.9822 1278.96 46.5952 1278.6 46.2898C1278.25 45.9844 1277.69 45.75 1276.94 45.5866L1274.15 45.0007C1272.58 44.674 1271.42 44.1236 1270.67 43.3494C1269.91 42.5682 1269.54 41.581 1269.55 40.3878C1269.54 39.3793 1269.81 38.5057 1270.37 37.767C1270.93 37.0213 1271.71 36.446 1272.7 36.0412C1273.7 35.6293 1274.86 35.4233 1276.16 35.4233C1278.08 35.4233 1279.59 35.8317 1280.69 36.6484C1281.8 37.4652 1282.48 38.5696 1282.75 39.9616ZM1298.43 52.3303C1297.39 52.3303 1296.46 52.1456 1295.63 51.7763C1294.8 51.3999 1294.15 50.8459 1293.67 50.1143C1293.19 49.3828 1292.95 48.4808 1292.95 47.4084C1292.95 46.4851 1293.12 45.7216 1293.46 45.1179C1293.81 44.5142 1294.27 44.0312 1294.86 43.669C1295.45 43.3068 1296.11 43.0334 1296.85 42.8487C1297.6 42.657 1298.37 42.5185 1299.16 42.4332C1300.12 42.3338 1300.9 42.245 1301.5 42.1669C1302.09 42.0817 1302.53 41.9538 1302.8 41.7834C1303.07 41.6058 1303.21 41.3324 1303.21 40.9631V40.8991C1303.21 40.0966 1302.97 39.4751 1302.5 39.0348C1302.02 38.5945 1301.34 38.3743 1300.44 38.3743C1299.5 38.3743 1298.75 38.5803 1298.19 38.9922C1297.65 39.4041 1297.28 39.8906 1297.09 40.4517L1293.49 39.9403C1293.77 38.946 1294.24 38.1151 1294.89 37.4474C1295.55 36.7727 1296.34 36.2685 1297.29 35.9347C1298.23 35.5938 1299.28 35.4233 1300.42 35.4233C1301.21 35.4233 1301.99 35.5156 1302.78 35.7003C1303.56 35.8849 1304.27 36.1903 1304.92 36.6165C1305.56 37.0355 1306.08 37.6072 1306.47 38.3317C1306.87 39.0561 1307.07 39.9616 1307.07 41.0483V52H1303.36V49.7521H1303.23C1303 50.2067 1302.67 50.6328 1302.24 51.0305C1301.82 51.4212 1301.29 51.7372 1300.66 51.9787C1300.02 52.2131 1299.28 52.3303 1298.43 52.3303ZM1299.43 49.4964C1300.2 49.4964 1300.88 49.3437 1301.44 49.0384C1302.01 48.7259 1302.45 48.3139 1302.75 47.8026C1303.07 47.2912 1303.22 46.7337 1303.22 46.13V44.2017C1303.1 44.3011 1302.9 44.3935 1302.6 44.4787C1302.32 44.5639 1302 44.6385 1301.65 44.7024C1301.29 44.7663 1300.94 44.8232 1300.59 44.8729C1300.24 44.9226 1299.94 44.9652 1299.69 45.0007C1299.11 45.0788 1298.6 45.2067 1298.14 45.3842C1297.69 45.5618 1297.33 45.8104 1297.06 46.13C1296.8 46.4425 1296.67 46.8473 1296.67 47.3445C1296.67 48.0547 1296.93 48.5909 1297.45 48.9531C1297.97 49.3153 1298.63 49.4964 1299.43 49.4964ZM1314.8 42.4119V52H1310.95V35.6364H1314.63V38.4169H1314.82C1315.2 37.5007 1315.8 36.7727 1316.62 36.233C1317.46 35.6932 1318.48 35.4233 1319.7 35.4233C1320.83 35.4233 1321.82 35.6648 1322.65 36.1477C1323.5 36.6307 1324.15 37.3303 1324.61 38.2464C1325.08 39.1626 1325.31 40.2741 1325.31 41.581V52H1321.45V42.1776C1321.45 41.0838 1321.17 40.228 1320.6 39.6101C1320.04 38.9922 1319.26 38.6832 1318.27 38.6832C1317.59 38.6832 1316.99 38.8324 1316.46 39.1307C1315.95 39.4219 1315.54 39.8445 1315.24 40.3984C1314.95 40.9524 1314.8 41.6236 1314.8 42.4119ZM1335.3 52.2876C1334.01 52.2876 1332.86 51.9574 1331.85 51.2969C1330.83 50.6364 1330.03 49.6776 1329.44 48.4205C1328.85 47.1634 1328.56 45.6364 1328.56 43.8395C1328.56 42.0213 1328.85 40.4872 1329.45 39.2372C1330.06 37.9801 1330.87 37.032 1331.89 36.3928C1332.91 35.7464 1334.05 35.4233 1335.31 35.4233C1336.27 35.4233 1337.06 35.5866 1337.68 35.9134C1338.29 36.233 1338.78 36.62 1339.15 37.0746C1339.51 37.522 1339.79 37.9446 1339.99 38.3423H1340.15V30.1818H1344.01V52H1340.22V49.4219H1339.99C1339.79 49.8196 1339.5 50.2422 1339.12 50.6896C1338.75 51.13 1338.25 51.5064 1337.63 51.8189C1337.02 52.1314 1336.24 52.2876 1335.3 52.2876ZM1336.38 49.1236C1337.19 49.1236 1337.89 48.9034 1338.46 48.4631C1339.04 48.0156 1339.48 47.3942 1339.77 46.5987C1340.07 45.8033 1340.22 44.8764 1340.22 43.8182C1340.22 42.7599 1340.07 41.8402 1339.77 41.0589C1339.48 40.2777 1339.05 39.6705 1338.47 39.2372C1337.91 38.804 1337.21 38.5874 1336.38 38.5874C1335.52 38.5874 1334.8 38.8111 1334.22 39.2585C1333.65 39.706 1333.22 40.3239 1332.92 41.1122C1332.63 41.9006 1332.49 42.8026 1332.49 43.8182C1332.49 44.8409 1332.63 45.7536 1332.92 46.5561C1333.22 47.3516 1333.66 47.9801 1334.23 48.4418C1334.82 48.8963 1335.53 49.1236 1336.38 49.1236ZM1171.23 75.9616L1167.71 76.3452C1167.61 75.9901 1167.44 75.6562 1167.19 75.3438C1166.95 75.0312 1166.62 74.7791 1166.21 74.5874C1165.8 74.3956 1165.29 74.2997 1164.7 74.2997C1163.9 74.2997 1163.22 74.4737 1162.67 74.8217C1162.13 75.1697 1161.87 75.6207 1161.87 76.1747C1161.87 76.6506 1162.04 77.0376 1162.4 77.3359C1162.76 77.6342 1163.36 77.8793 1164.19 78.071L1166.98 78.6676C1168.53 79.0014 1169.68 79.5305 1170.43 80.255C1171.19 80.9794 1171.57 81.9276 1171.58 83.0994C1171.57 84.1293 1171.27 85.0384 1170.67 85.8267C1170.08 86.608 1169.26 87.2187 1168.21 87.6591C1167.16 88.0994 1165.95 88.3196 1164.59 88.3196C1162.59 88.3196 1160.98 87.9006 1159.75 87.0625C1158.53 86.2173 1157.8 85.0419 1157.57 83.5362L1161.33 83.174C1161.5 83.9126 1161.86 84.4702 1162.42 84.8466C1162.97 85.223 1163.69 85.4112 1164.58 85.4112C1165.5 85.4112 1166.23 85.223 1166.79 84.8466C1167.35 84.4702 1167.63 84.005 1167.63 83.451C1167.63 82.9822 1167.45 82.5952 1167.08 82.2898C1166.73 81.9844 1166.17 81.75 1165.42 81.5866L1162.63 81.0007C1161.06 80.674 1159.9 80.1236 1159.15 79.3494C1158.39 78.5682 1158.02 77.581 1158.03 76.3878C1158.02 75.3793 1158.3 74.5057 1158.85 73.767C1159.41 73.0213 1160.19 72.446 1161.18 72.0412C1162.18 71.6293 1163.34 71.4233 1164.64 71.4233C1166.56 71.4233 1168.07 71.8317 1169.17 72.6484C1170.28 73.4652 1170.97 74.5696 1171.23 75.9616ZM1179.47 88.3303C1178.43 88.3303 1177.5 88.1456 1176.67 87.7763C1175.84 87.3999 1175.19 86.8459 1174.71 86.1143C1174.23 85.3828 1173.99 84.4808 1173.99 83.4084C1173.99 82.4851 1174.16 81.7216 1174.5 81.1179C1174.85 80.5142 1175.31 80.0312 1175.9 79.669C1176.49 79.3068 1177.15 79.0334 1177.89 78.8487C1178.64 78.657 1179.41 78.5185 1180.2 78.4332C1181.16 78.3338 1181.94 78.245 1182.54 78.1669C1183.13 78.0817 1183.57 77.9538 1183.84 77.7834C1184.11 77.6058 1184.25 77.3324 1184.25 76.9631V76.8991C1184.25 76.0966 1184.01 75.4751 1183.54 75.0348C1183.06 74.5945 1182.38 74.3743 1181.48 74.3743C1180.54 74.3743 1179.79 74.5803 1179.23 74.9922C1178.69 75.4041 1178.32 75.8906 1178.13 76.4517L1174.53 75.9403C1174.81 74.946 1175.28 74.1151 1175.93 73.4474C1176.59 72.7727 1177.38 72.2685 1178.33 71.9347C1179.27 71.5938 1180.32 71.4233 1181.46 71.4233C1182.25 71.4233 1183.03 71.5156 1183.82 71.7003C1184.6 71.8849 1185.31 72.1903 1185.96 72.6165C1186.6 73.0355 1187.12 73.6072 1187.51 74.3317C1187.91 75.0561 1188.11 75.9616 1188.11 77.0483V88H1184.4V85.7521H1184.27C1184.04 86.2067 1183.71 86.6328 1183.28 87.0305C1182.86 87.4212 1182.33 87.7372 1181.7 87.9787C1181.06 88.2131 1180.32 88.3303 1179.47 88.3303ZM1180.47 85.4964C1181.24 85.4964 1181.92 85.3437 1182.48 85.0384C1183.05 84.7259 1183.49 84.3139 1183.79 83.8026C1184.11 83.2912 1184.26 82.7337 1184.26 82.13V80.2017C1184.14 80.3011 1183.94 80.3935 1183.64 80.4787C1183.36 80.5639 1183.04 80.6385 1182.69 80.7024C1182.33 80.7663 1181.98 80.8232 1181.63 80.8729C1181.28 80.9226 1180.98 80.9652 1180.73 81.0007C1180.15 81.0788 1179.64 81.2067 1179.18 81.3842C1178.73 81.5618 1178.37 81.8104 1178.11 82.13C1177.84 82.4425 1177.71 82.8473 1177.71 83.3445C1177.71 84.0547 1177.97 84.5909 1178.49 84.9531C1179.01 85.3153 1179.67 85.4964 1180.47 85.4964ZM1206.02 71.6364L1200.19 88H1195.93L1190.1 71.6364H1194.21L1197.97 83.7919H1198.14L1201.92 71.6364H1206.02ZM1215.37 88.3196C1213.73 88.3196 1212.32 87.9787 1211.12 87.2969C1209.94 86.608 1209.02 85.6349 1208.38 84.3778C1207.75 83.1136 1207.43 81.6257 1207.43 79.9141C1207.43 78.2308 1207.75 76.7536 1208.38 75.4822C1209.03 74.2038 1209.93 73.2095 1211.09 72.4993C1212.25 71.782 1213.61 71.4233 1215.17 71.4233C1216.18 71.4233 1217.13 71.5866 1218.03 71.9134C1218.93 72.233 1219.72 72.7301 1220.41 73.4048C1221.11 74.0795 1221.66 74.9389 1222.05 75.983C1222.45 77.0199 1222.65 78.2557 1222.65 79.6903V80.8729H1209.24V78.2734H1218.95C1218.95 77.5348 1218.79 76.8778 1218.47 76.3026C1218.16 75.7202 1217.72 75.2621 1217.16 74.9283C1216.61 74.5945 1215.96 74.4276 1215.22 74.4276C1214.44 74.4276 1213.74 74.6193 1213.15 75.0028C1212.55 75.3793 1212.08 75.8764 1211.75 76.4943C1211.42 77.1051 1211.26 77.7763 1211.25 78.5078V80.777C1211.25 81.7287 1211.42 82.5455 1211.77 83.2273C1212.12 83.902 1212.61 84.4205 1213.23 84.7827C1213.86 85.1378 1214.59 85.3153 1215.43 85.3153C1215.99 85.3153 1216.5 85.2372 1216.95 85.081C1217.4 84.9176 1217.8 84.6797 1218.13 84.3672C1218.47 84.0547 1218.72 83.6676 1218.89 83.206L1222.49 83.6108C1222.26 84.5625 1221.83 85.3935 1221.19 86.1037C1220.56 86.8068 1219.75 87.3537 1218.76 87.7443C1217.77 88.1278 1216.64 88.3196 1215.37 88.3196ZM1233.35 88V71.6364H1237.04V74.4169H1237.23C1237.57 73.4794 1238.14 72.7479 1238.93 72.2223C1239.71 71.6896 1240.65 71.4233 1241.75 71.4233C1242.86 71.4233 1243.79 71.6932 1244.55 72.233C1245.32 72.7656 1245.86 73.4936 1246.17 74.4169H1246.34C1246.7 73.5078 1247.31 72.7834 1248.17 72.2436C1249.04 71.6967 1250.07 71.4233 1251.25 71.4233C1252.76 71.4233 1253.99 71.8991 1254.94 72.8509C1255.89 73.8026 1256.36 75.1911 1256.36 77.0163V88H1252.5V77.6129C1252.5 76.5973 1252.23 75.8551 1251.69 75.3864C1251.15 74.9105 1250.49 74.6726 1249.71 74.6726C1248.78 74.6726 1248.05 74.9638 1247.52 75.5462C1247 76.1214 1246.74 76.8707 1246.74 77.794V88H1242.96V77.4531C1242.96 76.608 1242.71 75.9332 1242.2 75.429C1241.69 74.9247 1241.03 74.6726 1240.21 74.6726C1239.66 74.6726 1239.16 74.8146 1238.7 75.0987C1238.25 75.3757 1237.88 75.7699 1237.61 76.2812C1237.35 76.7855 1237.21 77.375 1237.21 78.0497V88H1233.35ZM1267.42 88.3196C1265.82 88.3196 1264.43 87.968 1263.26 87.2649C1262.09 86.5618 1261.18 85.5781 1260.53 84.3139C1259.89 83.0497 1259.57 81.5724 1259.57 79.8821C1259.57 78.1918 1259.89 76.7109 1260.53 75.4396C1261.18 74.1683 1262.09 73.1811 1263.26 72.478C1264.43 71.7749 1265.82 71.4233 1267.42 71.4233C1269.01 71.4233 1270.4 71.7749 1271.57 72.478C1272.74 73.1811 1273.65 74.1683 1274.29 75.4396C1274.93 76.7109 1275.26 78.1918 1275.26 79.8821C1275.26 81.5724 1274.93 83.0497 1274.29 84.3139C1273.65 85.5781 1272.74 86.5618 1271.57 87.2649C1270.4 87.968 1269.01 88.3196 1267.42 88.3196ZM1267.44 85.2301C1268.3 85.2301 1269.03 84.9922 1269.61 84.5163C1270.19 84.0334 1270.63 83.3871 1270.91 82.5774C1271.2 81.7678 1271.35 80.8658 1271.35 79.8714C1271.35 78.87 1271.2 77.9645 1270.91 77.1548C1270.63 76.3381 1270.19 75.6882 1269.61 75.2053C1269.03 74.7223 1268.3 74.4808 1267.44 74.4808C1266.55 74.4808 1265.81 74.7223 1265.22 75.2053C1264.64 75.6882 1264.2 76.3381 1263.91 77.1548C1263.63 77.9645 1263.48 78.87 1263.48 79.8714C1263.48 80.8658 1263.63 81.7678 1263.91 82.5774C1264.2 83.3871 1264.64 84.0334 1265.22 84.5163C1265.81 84.9922 1266.55 85.2301 1267.44 85.2301ZM1282.39 78.4119V88H1278.53V71.6364H1282.22V74.4169H1282.41C1282.78 73.5007 1283.38 72.7727 1284.21 72.233C1285.04 71.6932 1286.06 71.4233 1287.29 71.4233C1288.42 71.4233 1289.4 71.6648 1290.24 72.1477C1291.08 72.6307 1291.74 73.3303 1292.2 74.2464C1292.67 75.1626 1292.9 76.2741 1292.89 77.581V88H1289.03V78.1776C1289.03 77.0838 1288.75 76.228 1288.18 75.6101C1287.62 74.9922 1286.84 74.6832 1285.85 74.6832C1285.17 74.6832 1284.57 74.8324 1284.05 75.1307C1283.53 75.4219 1283.12 75.8445 1282.82 76.3984C1282.53 76.9524 1282.39 77.6236 1282.39 78.4119ZM1304.05 88.3196C1302.41 88.3196 1301 87.9787 1299.8 87.2969C1298.62 86.608 1297.71 85.6349 1297.07 84.3778C1296.43 83.1136 1296.11 81.6257 1296.11 79.9141C1296.11 78.2308 1296.43 76.7536 1297.07 75.4822C1297.71 74.2038 1298.61 73.2095 1299.77 72.4993C1300.93 71.782 1302.29 71.4233 1303.85 71.4233C1304.86 71.4233 1305.81 71.5866 1306.71 71.9134C1307.61 72.233 1308.41 72.7301 1309.09 73.4048C1309.79 74.0795 1310.34 74.9389 1310.73 75.983C1311.13 77.0199 1311.33 78.2557 1311.33 79.6903V80.8729H1297.92V78.2734H1307.63C1307.63 77.5348 1307.47 76.8778 1307.16 76.3026C1306.84 75.7202 1306.41 75.2621 1305.84 74.9283C1305.29 74.5945 1304.64 74.4276 1303.91 74.4276C1303.12 74.4276 1302.42 74.6193 1301.83 75.0028C1301.23 75.3793 1300.77 75.8764 1300.43 76.4943C1300.11 77.1051 1299.94 77.7763 1299.93 78.5078V80.777C1299.93 81.7287 1300.11 82.5455 1300.45 83.2273C1300.8 83.902 1301.29 84.4205 1301.91 84.7827C1302.54 85.1378 1303.27 85.3153 1304.11 85.3153C1304.67 85.3153 1305.18 85.2372 1305.63 85.081C1306.09 84.9176 1306.48 84.6797 1306.81 84.3672C1307.15 84.0547 1307.4 83.6676 1307.57 83.206L1311.17 83.6108C1310.94 84.5625 1310.51 85.3935 1309.87 86.1037C1309.24 86.8068 1308.43 87.3537 1307.44 87.7443C1306.46 88.1278 1305.33 88.3196 1304.05 88.3196ZM1316.52 94.1364C1316 94.1364 1315.51 94.0938 1315.06 94.0085C1314.62 93.9304 1314.27 93.8381 1314.01 93.7315L1314.9 90.7273C1315.46 90.8906 1315.96 90.9688 1316.4 90.9616C1316.85 90.9545 1317.23 90.8161 1317.57 90.5462C1317.91 90.2834 1318.19 89.843 1318.43 89.2251L1318.76 88.3409L1312.83 71.6364H1316.92L1320.69 83.9943H1320.86L1324.64 71.6364H1328.74L1322.19 89.9815C1321.88 90.848 1321.48 91.5902 1320.98 92.2081C1320.47 92.8331 1319.85 93.3089 1319.12 93.6357C1318.4 93.9695 1317.53 94.1364 1316.52 94.1364ZM1336.13 66.1818L1335.78 81.5866H1332.35L1332.01 66.1818H1336.13ZM1334.06 88.2344C1333.42 88.2344 1332.86 88.0071 1332.4 87.5526C1331.95 87.098 1331.72 86.544 1331.72 85.8906C1331.72 85.2514 1331.95 84.7045 1332.4 84.25C1332.86 83.7955 1333.42 83.5682 1334.06 83.5682C1334.7 83.5682 1335.24 83.7955 1335.7 84.25C1336.17 84.7045 1336.41 85.2514 1336.41 85.8906C1336.41 86.3239 1336.3 86.718 1336.08 87.0732C1335.86 87.4283 1335.58 87.7124 1335.22 87.9254C1334.88 88.1314 1334.49 88.2344 1334.06 88.2344Z" fill="black"/>
</svg>
